
<svg width="46" height="46" viewBox="0 0 46 46" fill="none" xmlns="http://www.w3.org/2000/svg">
<g clip-path="url(#clip0_3536_11)">
<mask id="path-1-inside-1_3536_11" fill="white">
<rect width="46" height="46" rx="2"/>
</mask>
<rect width="46" height="46" rx="2" stroke="var(--color-dark-1)" stroke-width="8" mask="url(#path-1-inside-1_3536_11)"/>
<path d="M44.0554 46.0604C45.2014 46.0585 46.1289 45.1281 46.1271 43.9821L46.0974 25.3071C46.0956 24.1611 45.1651 23.2336 44.0192 23.2354C42.8732 23.2372 41.9456 24.1677 41.9474 25.3137L41.9738 41.9137L25.3738 41.94C24.2278 41.9418 23.3003 42.8723 23.3021 44.0183C23.3039 45.1643 24.2344 46.0918 25.3804 46.09L44.0554 46.0604ZM21.5349 24.4694L42.5872 45.4549L45.517 42.5158L24.4647 21.5302L21.5349 24.4694Z" fill="#31FF8B"/>
<circle cx="23.1" cy="23.1" r="2.1" fill="#31FF8B"/>
</g>
<defs>
    <style>
        :root {
            --color-accent-1: #31ff8b;
            --color-accent-2: #5151f3;
            --color-dark-1: #090c0f;
            --color-dark-2: #121416;
            --color-light-1: #fafaf8;
            --color-light-2: #f0f2f4;
            --color-heading: #101b2b;
            --color-text: #5e6265;
            --color-border: #74787b;
        }
        @media (prefers-color-scheme:dark) {
            :root {
            --color-dark-1: #fafaf8;
            --color-dark-2: #f0f2f4;
            --color-light-1: #090c0f;
            --color-light-2: #121416;
            --color-heading: #fff;
            --color-text: #bcbcbc;
            --color-border: #74787b;
            }
          } 
    </style>
<clipPath id="clip0_3536_11">
<rect width="46" height="46" fill="white"/>
</clipPath>
</defs>
</svg>
