<svg width="1369" height="297" viewBox="0 0 1369 297" fill="none" xmlns="http://www.w3.org/2000/svg">
<g clip-path="url(#clip0_2876_68)">
<mask id="path-1-outside-1_2876_68" maskUnits="userSpaceOnUse" x="617" y="11" width="753" height="73" fill="black">
<rect fill="white" x="617" y="11" width="753" height="73"/>
<path d="M669.924 36.208C669.924 39.9493 669.065 43.384 667.348 46.512C665.631 49.5787 662.993 52.0627 659.436 53.964C655.879 55.8653 651.463 56.816 646.188 56.816H636.436V80H620.704V15.416H646.188C651.34 15.416 655.695 16.3053 659.252 18.084C662.809 19.8627 665.477 22.316 667.256 25.444C669.035 28.572 669.924 32.16 669.924 36.208ZM644.992 44.304C647.997 44.304 650.236 43.5987 651.708 42.188C653.18 40.7773 653.916 38.784 653.916 36.208C653.916 33.632 653.18 31.6387 651.708 30.228C650.236 28.8173 647.997 28.112 644.992 28.112H636.436V44.304H644.992ZM712.338 80L698.906 55.62H695.134V80H679.402V15.416H705.806C710.897 15.416 715.221 16.3053 718.778 18.084C722.397 19.8627 725.095 22.316 726.874 25.444C728.653 28.5107 729.542 31.9453 729.542 35.748C729.542 40.0413 728.315 43.8747 725.862 47.248C723.47 50.6213 719.913 53.0133 715.19 54.424L730.094 80H712.338ZM695.134 44.488H704.886C707.769 44.488 709.915 43.7827 711.326 42.372C712.798 40.9613 713.534 38.968 713.534 36.392C713.534 33.9387 712.798 32.0067 711.326 30.596C709.915 29.1853 707.769 28.48 704.886 28.48H695.134V44.488ZM757.45 67.12H785.234V80H739.602V68.04L767.202 28.296H739.602V15.416H785.234V27.376L757.45 67.12ZM812.53 28.02V41.084H833.598V53.228H812.53V67.396H836.358V80H796.798V15.416H836.358V28.02H812.53ZM921 15.416V80H905.268V41.268L890.824 80H878.128L863.592 41.176V80H847.86V15.416H866.444L884.568 60.128L902.508 15.416H921ZM949.333 28.02V41.084H970.401V53.228H949.333V67.396H973.161V80H933.601V15.416H973.161V28.02H949.333ZM1022.11 80L1000.39 51.48V80H984.662V15.416H1000.39V43.752L1021.92 15.416H1040.41L1015.39 47.064L1041.33 80H1022.11ZM1144.02 15.416V80H1128.29V41.268L1113.85 80H1101.15L1086.61 41.176V80H1070.88V15.416H1089.47L1107.59 60.128L1125.53 15.416H1144.02ZM1172.36 15.416V80H1156.62V15.416H1172.36ZM1217.98 80L1204.55 55.62H1200.78V80H1185.04V15.416H1211.45C1216.54 15.416 1220.86 16.3053 1224.42 18.084C1228.04 19.8627 1230.74 22.316 1232.52 25.444C1234.3 28.5107 1235.18 31.9453 1235.18 35.748C1235.18 40.0413 1233.96 43.8747 1231.5 47.248C1229.11 50.6213 1225.56 53.0133 1220.83 54.424L1235.74 80H1217.98ZM1200.78 44.488H1210.53C1213.41 44.488 1215.56 43.7827 1216.97 42.372C1218.44 40.9613 1219.18 38.968 1219.18 36.392C1219.18 33.9387 1218.44 32.0067 1216.97 30.596C1215.56 29.1853 1213.41 28.48 1210.53 28.48H1200.78V44.488ZM1276.89 80.644C1270.82 80.644 1265.24 79.2333 1260.15 76.412C1255.12 73.5907 1251.1 69.6653 1248.1 64.636C1245.15 59.5453 1243.68 53.8413 1243.68 47.524C1243.68 41.2067 1245.15 35.5333 1248.1 30.504C1251.1 25.4747 1255.12 21.5493 1260.15 18.728C1265.24 15.9067 1270.82 14.496 1276.89 14.496C1282.96 14.496 1288.52 15.9067 1293.54 18.728C1298.64 21.5493 1302.62 25.4747 1305.5 30.504C1308.45 35.5333 1309.92 41.2067 1309.92 47.524C1309.92 53.8413 1308.45 59.5453 1305.5 64.636C1302.56 69.6653 1298.57 73.5907 1293.54 76.412C1288.52 79.2333 1282.96 80.644 1276.89 80.644ZM1276.89 66.292C1282.04 66.292 1286.15 64.5747 1289.22 61.14C1292.35 57.7053 1293.91 53.1667 1293.91 47.524C1293.91 41.82 1292.35 37.2813 1289.22 33.908C1286.15 30.4733 1282.04 28.756 1276.89 28.756C1271.68 28.756 1267.51 30.4427 1264.38 33.816C1261.31 37.1893 1259.78 41.7587 1259.78 47.524C1259.78 53.228 1261.31 57.7973 1264.38 61.232C1267.51 64.6053 1271.68 66.292 1276.89 66.292ZM1343.33 80.644C1338.61 80.644 1334.37 79.8773 1330.63 78.344C1326.89 76.8107 1323.89 74.5413 1321.62 71.536C1319.41 68.5307 1318.24 64.912 1318.12 60.68H1334.86C1335.11 63.072 1335.94 64.912 1337.35 66.2C1338.76 67.4267 1340.6 68.04 1342.87 68.04C1345.2 68.04 1347.04 67.5187 1348.39 66.476C1349.74 65.372 1350.41 63.8693 1350.41 61.968C1350.41 60.3733 1349.86 59.0547 1348.76 58.012C1347.71 56.9693 1346.4 56.1107 1344.8 55.436C1343.27 54.7613 1341.06 53.9947 1338.18 53.136C1334.01 51.848 1330.6 50.56 1327.96 49.272C1325.33 47.984 1323.06 46.0827 1321.16 43.568C1319.26 41.0533 1318.3 37.772 1318.3 33.724C1318.3 27.7133 1320.48 23.0213 1324.84 19.648C1329.19 16.2133 1334.86 14.496 1341.86 14.496C1348.97 14.496 1354.71 16.2133 1359.06 19.648C1363.42 23.0213 1365.75 27.744 1366.05 33.816H1349.03C1348.91 31.7307 1348.14 30.1053 1346.73 28.94C1345.32 27.7133 1343.51 27.1 1341.3 27.1C1339.4 27.1 1337.87 27.6213 1336.7 28.664C1335.54 29.6453 1334.96 31.0867 1334.96 32.988C1334.96 35.0733 1335.94 36.6987 1337.9 37.864C1339.86 39.0293 1342.93 40.2867 1347.1 41.636C1351.27 43.0467 1354.64 44.396 1357.22 45.684C1359.86 46.972 1362.13 48.8427 1364.03 51.296C1365.93 53.7493 1366.88 56.908 1366.88 60.772C1366.88 64.452 1365.93 67.7947 1364.03 70.8C1362.19 73.8053 1359.49 76.1973 1355.93 77.976C1352.38 79.7547 1348.17 80.644 1343.33 80.644Z"/>
</mask>
<path d="M667.348 46.512L669.966 47.9778L669.972 47.9668L669.978 47.9558L667.348 46.512ZM659.436 53.964L658.022 51.3182L658.022 51.3182L659.436 53.964ZM636.436 56.816V53.816H633.436V56.816H636.436ZM636.436 80V83H639.436V80H636.436ZM620.704 80H617.704V83H620.704V80ZM620.704 15.416V12.416H617.704V15.416H620.704ZM659.252 18.084L660.594 15.4007L660.594 15.4007L659.252 18.084ZM636.436 28.112V25.112H633.436V28.112H636.436ZM636.436 44.304H633.436V47.304H636.436V44.304ZM666.924 36.208C666.924 39.4699 666.181 42.4044 664.718 45.0682L669.978 47.9558C671.95 44.3636 672.924 40.4287 672.924 36.208H666.924ZM664.73 45.0462C663.333 47.542 661.15 49.6463 658.022 51.3182L660.85 56.6098C664.837 54.4791 667.929 51.6153 669.966 47.9778L664.73 45.0462ZM658.022 51.3182C655.013 52.9264 651.116 53.816 646.188 53.816V59.816C651.809 59.816 656.744 58.8042 660.85 56.6098L658.022 51.3182ZM646.188 53.816H636.436V59.816H646.188V53.816ZM633.436 56.816V80H639.436V56.816H633.436ZM636.436 77H620.704V83H636.436V77ZM623.704 80V15.416H617.704V80H623.704ZM620.704 18.416H646.188V12.416H620.704V18.416ZM646.188 18.416C651.007 18.416 654.874 19.2491 657.91 20.7673L660.594 15.4007C656.515 13.3615 651.673 12.416 646.188 12.416V18.416ZM657.91 20.7673C660.994 22.3092 663.194 24.3695 664.648 26.9269L669.864 23.9611C667.761 20.2625 664.624 17.4161 660.594 15.4007L657.91 20.7673ZM664.648 26.9269C666.139 29.5487 666.924 32.6137 666.924 36.208H672.924C672.924 31.7063 671.93 27.5953 669.864 23.9611L664.648 26.9269ZM644.992 47.304C648.408 47.304 651.537 46.5069 653.784 44.354L649.632 40.022C648.935 40.6904 647.586 41.304 644.992 41.304V47.304ZM653.784 44.354C655.993 42.2369 656.916 39.3735 656.916 36.208H650.916C650.916 38.1945 650.367 39.3178 649.632 40.022L653.784 44.354ZM656.916 36.208C656.916 33.0425 655.993 30.1791 653.784 28.062L649.632 32.394C650.367 33.0982 650.916 34.2215 650.916 36.208H656.916ZM653.784 28.062C651.537 25.9091 648.408 25.112 644.992 25.112V31.112C647.586 31.112 648.935 31.7256 649.632 32.394L653.784 28.062ZM644.992 25.112H636.436V31.112H644.992V25.112ZM633.436 28.112V44.304H639.436V28.112H633.436ZM636.436 47.304H644.992V41.304H636.436V47.304ZM712.338 80L709.711 81.4477L710.566 83H712.338V80ZM698.906 55.62L701.534 54.1723L700.679 52.62H698.906V55.62ZM695.134 55.62V52.62H692.134V55.62H695.134ZM695.134 80V83H698.134V80H695.134ZM679.402 80H676.402V83H679.402V80ZM679.402 15.416V12.416H676.402V15.416H679.402ZM718.778 18.084L717.437 20.7673L717.446 20.7718L717.455 20.7763L718.778 18.084ZM726.874 25.444L724.266 26.9269L724.273 26.9381L724.279 26.9492L726.874 25.444ZM725.862 47.248L723.436 45.4835L723.425 45.498L723.415 45.5127L725.862 47.248ZM715.19 54.424L714.332 51.5495L710.679 52.6406L712.598 55.9345L715.19 54.424ZM730.094 80V83H735.315L732.686 78.4895L730.094 80ZM695.134 44.488H692.134V47.488H695.134V44.488ZM711.326 42.372L709.25 40.206L709.227 40.2281L709.205 40.2507L711.326 42.372ZM711.326 30.596L709.205 32.7173L709.227 32.7399L709.25 32.762L711.326 30.596ZM695.134 28.48V25.48H692.134V28.48H695.134ZM714.966 78.5523L701.534 54.1723L696.279 57.0677L709.711 81.4477L714.966 78.5523ZM698.906 52.62H695.134V58.62H698.906V52.62ZM692.134 55.62V80H698.134V55.62H692.134ZM695.134 77H679.402V83H695.134V77ZM682.402 80V15.416H676.402V80H682.402ZM679.402 18.416H705.806V12.416H679.402V18.416ZM705.806 18.416C710.557 18.416 714.396 19.2469 717.437 20.7673L720.12 15.4007C716.046 13.3638 711.236 12.416 705.806 12.416V18.416ZM717.455 20.7763C720.601 22.3229 722.82 24.3835 724.266 26.9269L729.482 23.9611C727.371 20.2485 724.192 17.4024 720.102 15.3917L717.455 20.7763ZM724.279 26.9492C725.773 29.5253 726.542 32.4342 726.542 35.748H732.542C732.542 31.4564 731.532 27.496 729.469 23.9388L724.279 26.9492ZM726.542 35.748C726.542 39.4272 725.505 42.6388 723.436 45.4835L728.288 49.0125C731.126 45.1106 732.542 40.6555 732.542 35.748H726.542ZM723.415 45.5127C721.481 48.2401 718.54 50.2924 714.332 51.5495L716.049 57.2985C721.286 55.7342 725.459 53.0026 728.309 48.9833L723.415 45.5127ZM712.598 55.9345L727.502 81.5105L732.686 78.4895L717.782 52.9135L712.598 55.9345ZM730.094 77H712.338V83H730.094V77ZM695.134 47.488H704.886V41.488H695.134V47.488ZM704.886 47.488C708.209 47.488 711.265 46.6758 713.447 44.4933L709.205 40.2507C708.566 40.8895 707.328 41.488 704.886 41.488V47.488ZM713.402 44.538C715.611 42.4209 716.534 39.5575 716.534 36.392H710.534C710.534 38.3785 709.985 39.5018 709.25 40.206L713.402 44.538ZM716.534 36.392C716.534 33.2999 715.582 30.5195 713.402 28.43L709.25 32.762C710.014 33.4939 710.534 34.5774 710.534 36.392H716.534ZM713.447 28.4747C711.265 26.2922 708.209 25.48 704.886 25.48V31.48C707.328 31.48 708.566 32.0785 709.205 32.7173L713.447 28.4747ZM704.886 25.48H695.134V31.48H704.886V25.48ZM692.134 28.48V44.488H698.134V28.48H692.134ZM757.45 67.12L754.991 65.4011L751.692 70.12H757.45V67.12ZM785.234 67.12H788.234V64.12H785.234V67.12ZM785.234 80V83H788.234V80H785.234ZM739.602 80H736.602V83H739.602V80ZM739.602 68.04L737.138 66.3288L736.602 67.1005V68.04H739.602ZM767.202 28.296L769.666 30.0072L772.938 25.296H767.202V28.296ZM739.602 28.296H736.602V31.296H739.602V28.296ZM739.602 15.416V12.416H736.602V15.416H739.602ZM785.234 15.416H788.234V12.416H785.234V15.416ZM785.234 27.376L787.693 29.0949L788.234 28.3206V27.376H785.234ZM757.45 70.12H785.234V64.12H757.45V70.12ZM782.234 67.12V80H788.234V67.12H782.234ZM785.234 77H739.602V83H785.234V77ZM742.602 80V68.04H736.602V80H742.602ZM742.066 69.7512L769.666 30.0072L764.738 26.5848L737.138 66.3288L742.066 69.7512ZM767.202 25.296H739.602V31.296H767.202V25.296ZM742.602 28.296V15.416H736.602V28.296H742.602ZM739.602 18.416H785.234V12.416H739.602V18.416ZM782.234 15.416V27.376H788.234V15.416H782.234ZM782.775 25.6571L754.991 65.4011L759.909 68.8389L787.693 29.0949L782.775 25.6571ZM812.53 28.02V25.02H809.53V28.02H812.53ZM812.53 41.084H809.53V44.084H812.53V41.084ZM833.598 41.084H836.598V38.084H833.598V41.084ZM833.598 53.228V56.228H836.598V53.228H833.598ZM812.53 53.228V50.228H809.53V53.228H812.53ZM812.53 67.396H809.53V70.396H812.53V67.396ZM836.358 67.396H839.358V64.396H836.358V67.396ZM836.358 80V83H839.358V80H836.358ZM796.798 80H793.798V83H796.798V80ZM796.798 15.416V12.416H793.798V15.416H796.798ZM836.358 15.416H839.358V12.416H836.358V15.416ZM836.358 28.02V31.02H839.358V28.02H836.358ZM809.53 28.02V41.084H815.53V28.02H809.53ZM812.53 44.084H833.598V38.084H812.53V44.084ZM830.598 41.084V53.228H836.598V41.084H830.598ZM833.598 50.228H812.53V56.228H833.598V50.228ZM809.53 53.228V67.396H815.53V53.228H809.53ZM812.53 70.396H836.358V64.396H812.53V70.396ZM833.358 67.396V80H839.358V67.396H833.358ZM836.358 77H796.798V83H836.358V77ZM799.798 80V15.416H793.798V80H799.798ZM796.798 18.416H836.358V12.416H796.798V18.416ZM833.358 15.416V28.02H839.358V15.416H833.358ZM836.358 25.02H812.53V31.02H836.358V25.02ZM921 15.416H924V12.416H921V15.416ZM921 80V83H924V80H921ZM905.268 80H902.268V83H905.268V80ZM905.268 41.268H908.268L902.457 40.2198L905.268 41.268ZM890.824 80V83H892.907L893.635 81.0482L890.824 80ZM878.128 80L875.318 81.0519L876.048 83H878.128V80ZM863.592 41.176L866.401 40.1241L860.592 41.176H863.592ZM863.592 80V83H866.592V80H863.592ZM847.86 80H844.86V83H847.86V80ZM847.86 15.416V12.416H844.86V15.416H847.86ZM866.444 15.416L869.224 14.289L868.465 12.416H866.444V15.416ZM884.568 60.128L881.788 61.255L884.582 68.1489L887.352 61.2451L884.568 60.128ZM902.508 15.416V12.416H900.479L899.724 14.2989L902.508 15.416ZM918 15.416V80H924V15.416H918ZM921 77H905.268V83H921V77ZM908.268 80V41.268H902.268V80H908.268ZM902.457 40.2198L888.013 78.9518L893.635 81.0482L908.079 42.3162L902.457 40.2198ZM890.824 77H878.128V83H890.824V77ZM880.937 78.9481L866.401 40.1241L860.782 42.2279L875.318 81.0519L880.937 78.9481ZM860.592 41.176V80H866.592V41.176H860.592ZM863.592 77H847.86V83H863.592V77ZM850.86 80V15.416H844.86V80H850.86ZM847.86 18.416H866.444V12.416H847.86V18.416ZM863.664 16.543L881.788 61.255L887.348 59.001L869.224 14.289L863.664 16.543ZM887.352 61.2451L905.292 16.5331L899.724 14.2989L881.784 59.0109L887.352 61.2451ZM902.508 18.416H921V12.416H902.508V18.416ZM949.333 28.02V25.02H946.333V28.02H949.333ZM949.333 41.084H946.333V44.084H949.333V41.084ZM970.401 41.084H973.401V38.084H970.401V41.084ZM970.401 53.228V56.228H973.401V53.228H970.401ZM949.333 53.228V50.228H946.333V53.228H949.333ZM949.333 67.396H946.333V70.396H949.333V67.396ZM973.161 67.396H976.161V64.396H973.161V67.396ZM973.161 80V83H976.161V80H973.161ZM933.601 80H930.601V83H933.601V80ZM933.601 15.416V12.416H930.601V15.416H933.601ZM973.161 15.416H976.161V12.416H973.161V15.416ZM973.161 28.02V31.02H976.161V28.02H973.161ZM946.333 28.02V41.084H952.333V28.02H946.333ZM949.333 44.084H970.401V38.084H949.333V44.084ZM967.401 41.084V53.228H973.401V41.084H967.401ZM970.401 50.228H949.333V56.228H970.401V50.228ZM946.333 53.228V67.396H952.333V53.228H946.333ZM949.333 70.396H973.161V64.396H949.333V70.396ZM970.161 67.396V80H976.161V67.396H970.161ZM973.161 77H933.601V83H973.161V77ZM936.601 80V15.416H930.601V80H936.601ZM933.601 18.416H973.161V12.416H933.601V18.416ZM970.161 15.416V28.02H976.161V15.416H970.161ZM973.161 25.02H949.333V31.02H973.161V25.02ZM1022.11 80L1019.72 81.8172L1020.62 83H1022.11V80ZM1000.39 51.48L1002.78 49.6628L997.394 42.5867V51.48H1000.39ZM1000.39 80V83H1003.39V80H1000.39ZM984.662 80H981.662V83H984.662V80ZM984.662 15.416V12.416H981.662V15.416H984.662ZM1000.39 15.416H1003.39V12.416H1000.39V15.416ZM1000.39 43.752H997.394V52.6598L1002.78 45.5669L1000.39 43.752ZM1021.92 15.416V12.416H1020.43L1019.53 13.6011L1021.92 15.416ZM1040.41 15.416L1042.77 17.2767L1046.61 12.416H1040.41V15.416ZM1015.39 47.064L1013.04 45.2033L1011.57 47.0605L1013.03 48.9204L1015.39 47.064ZM1041.33 80V83H1047.52L1043.69 78.1436L1041.33 80ZM1024.49 78.1828L1002.78 49.6628L998.007 53.2972L1019.72 81.8172L1024.49 78.1828ZM997.394 51.48V80H1003.39V51.48H997.394ZM1000.39 77H984.662V83H1000.39V77ZM987.662 80V15.416H981.662V80H987.662ZM984.662 18.416H1000.39V12.416H984.662V18.416ZM997.394 15.416V43.752H1003.39V15.416H997.394ZM1002.78 45.5669L1024.31 17.2309L1019.53 13.6011L998.006 41.9371L1002.78 45.5669ZM1021.92 18.416H1040.41V12.416H1021.92V18.416ZM1038.06 13.5553L1013.04 45.2033L1017.74 48.9247L1042.77 17.2767L1038.06 13.5553ZM1013.03 48.9204L1038.98 81.8564L1043.69 78.1436L1017.75 45.2076L1013.03 48.9204ZM1041.33 77H1022.11V83H1041.33V77ZM1144.02 15.416H1147.02V12.416H1144.02V15.416ZM1144.02 80V83H1147.02V80H1144.02ZM1128.29 80H1125.29V83H1128.29V80ZM1128.29 41.268H1131.29L1125.48 40.2198L1128.29 41.268ZM1113.85 80V83H1115.93L1116.66 81.0482L1113.85 80ZM1101.15 80L1098.34 81.0519L1099.07 83H1101.15V80ZM1086.61 41.176L1089.42 40.1241L1083.61 41.176H1086.61ZM1086.61 80V83H1089.61V80H1086.61ZM1070.88 80H1067.88V83H1070.88V80ZM1070.88 15.416V12.416H1067.88V15.416H1070.88ZM1089.47 15.416L1092.25 14.289L1091.49 12.416H1089.47V15.416ZM1107.59 60.128L1104.81 61.255L1107.61 68.1489L1110.38 61.2451L1107.59 60.128ZM1125.53 15.416V12.416H1123.5L1122.75 14.2989L1125.53 15.416ZM1141.02 15.416V80H1147.02V15.416H1141.02ZM1144.02 77H1128.29V83H1144.02V77ZM1131.29 80V41.268H1125.29V80H1131.29ZM1125.48 40.2198L1111.04 78.9518L1116.66 81.0482L1131.1 42.3162L1125.48 40.2198ZM1113.85 77H1101.15V83H1113.85V77ZM1103.96 78.9481L1089.42 40.1241L1083.81 42.2279L1098.34 81.0519L1103.96 78.9481ZM1083.61 41.176V80H1089.61V41.176H1083.61ZM1086.61 77H1070.88V83H1086.61V77ZM1073.88 80V15.416H1067.88V80H1073.88ZM1070.88 18.416H1089.47V12.416H1070.88V18.416ZM1086.69 16.543L1104.81 61.255L1110.37 59.001L1092.25 14.289L1086.69 16.543ZM1110.38 61.2451L1128.32 16.5331L1122.75 14.2989L1104.81 59.0109L1110.38 61.2451ZM1125.53 18.416H1144.02V12.416H1125.53V18.416ZM1172.36 15.416H1175.36V12.416H1172.36V15.416ZM1172.36 80V83H1175.36V80H1172.36ZM1156.62 80H1153.62V83H1156.62V80ZM1156.62 15.416V12.416H1153.62V15.416H1156.62ZM1169.36 15.416V80H1175.36V15.416H1169.36ZM1172.36 77H1156.62V83H1172.36V77ZM1159.62 80V15.416H1153.62V80H1159.62ZM1156.62 18.416H1172.36V12.416H1156.62V18.416ZM1217.98 80L1215.35 81.4477L1216.21 83H1217.98V80ZM1204.55 55.62L1207.18 54.1723L1206.32 52.62H1204.55V55.62ZM1200.78 55.62V52.62H1197.78V55.62H1200.78ZM1200.78 80V83H1203.78V80H1200.78ZM1185.04 80H1182.04V83H1185.04V80ZM1185.04 15.416V12.416H1182.04V15.416H1185.04ZM1224.42 18.084L1223.08 20.7673L1223.09 20.7718L1223.1 20.7763L1224.42 18.084ZM1232.52 25.444L1229.91 26.9269L1229.92 26.9381L1229.92 26.9492L1232.52 25.444ZM1231.5 47.248L1229.08 45.4835L1229.07 45.498L1229.06 45.5127L1231.5 47.248ZM1220.83 54.424L1219.97 51.5495L1216.32 52.6406L1218.24 55.9345L1220.83 54.424ZM1235.74 80V83H1240.96L1238.33 78.4895L1235.74 80ZM1200.78 44.488H1197.78V47.488H1200.78V44.488ZM1216.97 42.372L1214.89 40.206L1214.87 40.2281L1214.85 40.2507L1216.97 42.372ZM1216.97 30.596L1214.85 32.7173L1214.87 32.7399L1214.89 32.762L1216.97 30.596ZM1200.78 28.48V25.48H1197.78V28.48H1200.78ZM1220.61 78.5523L1207.18 54.1723L1201.92 57.0677L1215.35 81.4477L1220.61 78.5523ZM1204.55 52.62H1200.78V58.62H1204.55V52.62ZM1197.78 55.62V80H1203.78V55.62H1197.78ZM1200.78 77H1185.04V83H1200.78V77ZM1188.04 80V15.416H1182.04V80H1188.04ZM1185.04 18.416H1211.45V12.416H1185.04V18.416ZM1211.45 18.416C1216.2 18.416 1220.04 19.2469 1223.08 20.7673L1225.76 15.4007C1221.69 13.3638 1216.88 12.416 1211.45 12.416V18.416ZM1223.1 20.7763C1226.24 22.3229 1228.46 24.3835 1229.91 26.9269L1235.12 23.9611C1233.01 20.2485 1229.84 17.4024 1225.74 15.3917L1223.1 20.7763ZM1229.92 26.9492C1231.42 29.5253 1232.18 32.4342 1232.18 35.748H1238.18C1238.18 31.4564 1237.18 27.496 1235.11 23.9388L1229.92 26.9492ZM1232.18 35.748C1232.18 39.4272 1231.15 42.6388 1229.08 45.4835L1233.93 49.0125C1236.77 45.1106 1238.18 40.6555 1238.18 35.748H1232.18ZM1229.06 45.5127C1227.12 48.2401 1224.18 50.2924 1219.97 51.5495L1221.69 57.2985C1226.93 55.7342 1231.1 53.0026 1233.95 48.9833L1229.06 45.5127ZM1218.24 55.9345L1233.14 81.5105L1238.33 78.4895L1223.42 52.9135L1218.24 55.9345ZM1235.74 77H1217.98V83H1235.74V77ZM1200.78 47.488H1210.53V41.488H1200.78V47.488ZM1210.53 47.488C1213.85 47.488 1216.91 46.6758 1219.09 44.4933L1214.85 40.2507C1214.21 40.8895 1212.97 41.488 1210.53 41.488V47.488ZM1219.04 44.538C1221.25 42.4209 1222.18 39.5575 1222.18 36.392H1216.18C1216.18 38.3785 1215.63 39.5018 1214.89 40.206L1219.04 44.538ZM1222.18 36.392C1222.18 33.2999 1221.22 30.5195 1219.04 28.43L1214.89 32.762C1215.66 33.4939 1216.18 34.5774 1216.18 36.392H1222.18ZM1219.09 28.4747C1216.91 26.2922 1213.85 25.48 1210.53 25.48V31.48C1212.97 31.48 1214.21 32.0785 1214.85 32.7173L1219.09 28.4747ZM1210.53 25.48H1200.78V31.48H1210.53V25.48ZM1197.78 28.48V44.488H1203.78V28.48H1197.78ZM1260.15 76.412L1258.68 79.0284L1258.69 79.0322L1258.69 79.036L1260.15 76.412ZM1248.1 64.636L1245.5 66.1379L1245.51 66.1564L1245.52 66.1749L1248.1 64.636ZM1248.1 30.504L1245.52 28.9651L1245.51 28.9768L1245.51 28.9885L1248.1 30.504ZM1260.15 18.728L1258.69 16.104L1258.69 16.1078L1258.68 16.1116L1260.15 18.728ZM1293.54 18.728L1292.08 21.3444L1292.08 21.3482L1292.09 21.352L1293.54 18.728ZM1305.5 30.504L1302.9 31.9958L1302.91 32.0077L1302.92 32.0195L1305.5 30.504ZM1305.5 64.636L1308.09 66.1515L1308.1 66.1447L1308.1 66.1379L1305.5 64.636ZM1293.54 76.412L1295.01 79.0284L1295.01 79.0284L1293.54 76.412ZM1289.22 61.14L1287 59.12L1286.99 59.1309L1286.98 59.142L1289.22 61.14ZM1289.22 33.908L1286.98 35.906L1287 35.9271L1287.02 35.9478L1289.22 33.908ZM1264.38 33.816L1262.18 31.7762L1262.17 31.787L1262.16 31.798L1264.38 33.816ZM1264.38 61.232L1262.14 63.23L1262.16 63.2511L1262.18 63.2718L1264.38 61.232ZM1276.89 77.644C1271.31 77.644 1266.23 76.3519 1261.6 73.788L1258.69 79.036C1264.25 82.1148 1270.33 83.644 1276.89 83.644V77.644ZM1261.62 73.7956C1257.05 71.2348 1253.41 67.6843 1250.67 63.0971L1245.52 66.1749C1248.79 71.6464 1253.19 75.9465 1258.68 79.0284L1261.62 73.7956ZM1250.69 63.1341C1248.03 58.5338 1246.68 53.3545 1246.68 47.524H1240.68C1240.68 54.3282 1242.27 60.5569 1245.5 66.1379L1250.69 63.1341ZM1246.68 47.524C1246.68 41.6931 1248.03 36.5508 1250.69 32.0195L1245.51 28.9885C1242.27 34.5158 1240.68 40.7202 1240.68 47.524H1246.68ZM1250.67 32.0429C1253.41 27.4557 1257.05 23.9052 1261.62 21.3444L1258.68 16.1116C1253.19 19.1935 1248.79 23.4936 1245.52 28.9651L1250.67 32.0429ZM1261.6 21.352C1266.23 18.7881 1271.31 17.496 1276.89 17.496V11.496C1270.33 11.496 1264.25 13.0252 1258.69 16.104L1261.6 21.352ZM1276.89 17.496C1282.48 17.496 1287.52 18.788 1292.08 21.3444L1295.01 16.1116C1289.51 13.0253 1283.45 11.496 1276.89 11.496V17.496ZM1292.09 21.352C1296.7 23.909 1300.29 27.4436 1302.9 31.9958L1308.11 29.0122C1304.95 23.5057 1300.57 19.1897 1295 16.104L1292.09 21.352ZM1302.92 32.0195C1305.57 36.5508 1306.92 41.6931 1306.92 47.524H1312.92C1312.92 40.7202 1311.33 34.5158 1308.09 28.9885L1302.92 32.0195ZM1306.92 47.524C1306.92 53.3545 1305.57 58.5338 1302.91 63.1341L1308.1 66.1379C1311.33 60.5569 1312.92 54.3282 1312.92 47.524H1306.92ZM1302.92 63.1205C1300.24 67.6948 1296.64 71.2379 1292.08 73.7956L1295.01 79.0284C1300.51 75.9434 1304.88 71.6358 1308.09 66.1515L1302.92 63.1205ZM1292.08 73.7956C1287.52 76.352 1282.48 77.644 1276.89 77.644V83.644C1283.45 83.644 1289.51 82.1147 1295.01 79.0284L1292.08 73.7956ZM1276.89 69.292C1282.79 69.292 1287.75 67.29 1291.46 63.138L1286.98 59.142C1284.56 61.8593 1281.3 63.292 1276.89 63.292V69.292ZM1291.44 63.16C1295.17 59.0597 1296.91 53.7453 1296.91 47.524H1290.91C1290.91 52.588 1289.52 56.3509 1287 59.12L1291.44 63.16ZM1296.91 47.524C1296.91 41.2535 1295.18 35.9214 1291.42 31.8682L1287.02 35.9478C1289.52 38.6412 1290.91 42.3865 1290.91 47.524H1296.91ZM1291.46 31.9099C1287.75 27.758 1282.79 25.756 1276.89 25.756V31.756C1281.3 31.756 1284.56 33.1887 1286.98 35.906L1291.46 31.9099ZM1276.89 25.756C1270.97 25.756 1265.95 27.7061 1262.18 31.7762L1266.58 35.8558C1269.06 33.1792 1272.39 31.756 1276.89 31.756V25.756ZM1262.16 31.798C1258.47 35.8584 1256.78 41.2172 1256.78 47.524H1262.78C1262.78 42.3001 1264.16 38.5203 1266.6 35.834L1262.16 31.798ZM1256.78 47.524C1256.78 53.7817 1258.48 59.1227 1262.14 63.23L1266.62 59.234C1264.15 56.472 1262.78 52.6743 1262.78 47.524H1256.78ZM1262.18 63.2718C1265.95 67.3419 1270.97 69.292 1276.89 69.292V63.292C1272.39 63.292 1269.06 61.8688 1266.58 59.1922L1262.18 63.2718ZM1330.63 78.344L1329.5 81.1199L1329.5 81.1199L1330.63 78.344ZM1321.62 71.536L1319.2 73.3122L1319.21 73.3281L1319.22 73.3438L1321.62 71.536ZM1318.12 60.68V57.68H1315.03L1315.12 60.7669L1318.12 60.68ZM1334.86 60.68L1337.85 60.3739L1337.57 57.68H1334.86V60.68ZM1337.35 66.2L1335.33 68.4155L1335.35 68.44L1335.38 68.4638L1337.35 66.2ZM1348.39 66.476L1350.22 68.8499L1350.26 68.8243L1350.29 68.7979L1348.39 66.476ZM1348.76 58.012L1346.64 60.1333L1346.67 60.1636L1346.7 60.193L1348.76 58.012ZM1344.8 55.436L1343.59 58.1819L1343.61 58.1906L1343.63 58.1989L1344.8 55.436ZM1338.18 53.136L1337.29 56.0024L1337.31 56.0069L1337.32 56.0112L1338.18 53.136ZM1327.96 49.272L1326.65 51.9677L1327.96 49.272ZM1321.16 43.568L1323.55 41.7587L1323.55 41.7587L1321.16 43.568ZM1324.84 19.648L1326.67 22.0196L1326.68 22.0116L1326.69 22.0035L1324.84 19.648ZM1359.06 19.648L1357.2 22.0035L1357.21 22.0116L1357.22 22.0196L1359.06 19.648ZM1366.05 33.816V36.816H1369.21L1369.05 33.6647L1366.05 33.816ZM1349.03 33.816L1346.04 33.9922L1346.2 36.816H1349.03V33.816ZM1346.73 28.94L1344.76 31.2038L1344.79 31.2287L1344.82 31.2529L1346.73 28.94ZM1336.7 28.664L1338.64 30.9587L1338.67 30.9297L1338.71 30.8997L1336.7 28.664ZM1337.9 37.864L1339.43 35.2844L1339.43 35.2844L1337.9 37.864ZM1347.1 41.636L1348.06 38.7942L1348.04 38.7878L1348.02 38.7817L1347.1 41.636ZM1357.22 45.684L1355.88 48.3673L1355.89 48.3735L1355.9 48.3797L1357.22 45.684ZM1364.03 51.296L1361.66 53.1337L1361.66 53.1337L1364.03 51.296ZM1364.03 70.8L1361.49 69.1961L1361.48 69.2147L1361.47 69.2335L1364.03 70.8ZM1355.93 77.976L1354.59 75.2927L1354.59 75.2927L1355.93 77.976ZM1343.33 77.644C1338.93 77.644 1335.1 76.9308 1331.77 75.5681L1329.5 81.1199C1333.65 82.8239 1338.28 83.644 1343.33 83.644V77.644ZM1331.77 75.5681C1328.49 74.2233 1325.93 72.2723 1324.01 69.7282L1319.22 73.3438C1321.84 76.8104 1325.29 79.398 1329.5 81.1199L1331.77 75.5681ZM1324.03 69.7598C1322.23 67.3101 1321.23 64.3014 1321.12 60.5931L1315.12 60.7669C1315.26 65.5226 1316.58 69.7513 1319.2 73.3122L1324.03 69.7598ZM1318.12 63.68H1334.86V57.68H1318.12V63.68ZM1331.88 60.9861C1332.18 63.9145 1333.24 66.5119 1335.33 68.4155L1339.37 63.9845C1338.64 63.3121 1338.04 62.2295 1337.85 60.3739L1331.88 60.9861ZM1335.38 68.4638C1337.45 70.2615 1340.04 71.04 1342.87 71.04V65.04C1341.16 65.04 1340.07 64.5918 1339.32 63.9362L1335.38 68.4638ZM1342.87 71.04C1345.62 71.04 1348.19 70.4244 1350.22 68.8499L1346.55 64.1021C1345.89 64.6129 1344.78 65.04 1342.87 65.04V71.04ZM1350.29 68.7979C1352.4 67.0678 1353.41 64.6763 1353.41 61.968H1347.41C1347.41 63.0624 1347.07 63.6762 1346.49 64.1541L1350.29 68.7979ZM1353.41 61.968C1353.41 59.5944 1352.55 57.4715 1350.82 55.831L1346.7 60.193C1347.17 60.6378 1347.41 61.1522 1347.41 61.968H1353.41ZM1350.88 55.8907C1349.52 54.5316 1347.86 53.4725 1345.97 52.6731L1343.63 58.1989C1344.93 58.7488 1345.91 59.4071 1346.64 60.1333L1350.88 55.8907ZM1346.01 52.6901C1344.31 51.9404 1341.96 51.1319 1339.03 50.2608L1337.32 56.0112C1340.16 56.8574 1342.23 57.5823 1343.59 58.1819L1346.01 52.6901ZM1339.06 50.2696C1334.98 49.0075 1331.73 47.7722 1329.28 46.5763L1326.65 51.9677C1329.47 53.3478 1333.04 54.6885 1337.29 56.0024L1339.06 50.2696ZM1329.28 46.5763C1327.1 45.5102 1325.19 43.9259 1323.55 41.7587L1318.76 45.3773C1320.93 48.2394 1323.56 50.4578 1326.65 51.9677L1329.28 46.5763ZM1323.55 41.7587C1322.14 39.8965 1321.3 37.3057 1321.3 33.724H1315.3C1315.3 38.2383 1316.37 42.2101 1318.76 45.3773L1323.55 41.7587ZM1321.3 33.724C1321.3 28.5439 1323.13 24.7677 1326.67 22.0196L1323 17.2763C1317.84 21.2749 1315.3 26.8828 1315.3 33.724H1321.3ZM1326.69 22.0035C1330.39 19.0851 1335.36 17.496 1341.86 17.496V11.496C1334.37 11.496 1327.99 13.3416 1322.98 17.2925L1326.69 22.0035ZM1341.86 17.496C1348.49 17.496 1353.51 19.0919 1357.2 22.0035L1360.92 17.2925C1355.9 13.3348 1349.45 11.496 1341.86 11.496V17.496ZM1357.22 22.0196C1360.81 24.7977 1362.79 28.667 1363.06 33.9673L1369.05 33.6647C1368.7 26.821 1366.02 21.2449 1360.9 17.2763L1357.22 22.0196ZM1366.05 30.816H1349.03V36.816H1366.05V30.816ZM1352.03 33.6398C1351.86 30.8522 1350.79 28.4006 1348.64 26.6271L1344.82 31.2529C1345.5 31.8101 1345.96 32.6092 1346.04 33.9922L1352.03 33.6398ZM1348.7 26.6762C1346.65 24.8914 1344.1 24.1 1341.3 24.1V30.1C1342.93 30.1 1344 30.5353 1344.76 31.2038L1348.7 26.6762ZM1341.3 24.1C1338.83 24.1 1336.53 24.7924 1334.7 26.4283L1338.71 30.8997C1339.21 30.4503 1339.97 30.1 1341.3 30.1V24.1ZM1334.77 26.3693C1332.77 28.0582 1331.96 30.4403 1331.96 32.988H1337.96C1337.96 31.733 1338.31 31.2324 1338.64 30.9587L1334.77 26.3693ZM1331.96 32.988C1331.96 36.2476 1333.6 38.7995 1336.37 40.4436L1339.43 35.2844C1338.28 34.5979 1337.96 33.899 1337.96 32.988H1331.96ZM1336.37 40.4436C1338.63 41.7838 1341.95 43.1229 1346.18 44.4903L1348.02 38.7817C1343.91 37.4505 1341.1 36.2748 1339.43 35.2844L1336.37 40.4436ZM1346.14 44.4778C1350.24 45.8649 1353.47 47.1639 1355.88 48.3673L1358.56 43.0007C1355.82 41.6281 1352.3 40.2285 1348.06 38.7942L1346.14 44.4778ZM1355.9 48.3797C1358.11 49.4546 1360.02 51.0219 1361.66 53.1337L1366.4 49.4583C1364.23 46.6634 1361.61 44.4894 1358.54 42.9883L1355.9 48.3797ZM1361.66 53.1337C1363.06 54.9433 1363.88 57.4071 1363.88 60.772H1369.88C1369.88 56.4089 1368.8 52.5554 1366.4 49.4583L1361.66 53.1337ZM1363.88 60.772C1363.88 63.905 1363.08 66.6879 1361.49 69.1961L1366.56 72.4039C1368.78 68.9014 1369.88 64.999 1369.88 60.772H1363.88ZM1361.47 69.2335C1359.96 71.7005 1357.71 73.732 1354.59 75.2927L1357.27 80.6593C1361.27 78.6627 1364.42 75.9101 1366.59 72.3665L1361.47 69.2335ZM1354.59 75.2927C1351.53 76.8225 1347.81 77.644 1343.33 77.644V83.644C1348.54 83.644 1353.22 82.6868 1357.27 80.6593L1354.59 75.2927Z" fill="#070707" mask="url(#path-1-outside-1_2876_68)"/>
<path d="M1017.85 202.45C1021.25 199.75 1022.8 198.5 1022.5 198.7C1032.3 190.6 1040 183.95 1045.6 178.75C1051.3 173.55 1056.1 168.1 1060 162.4C1063.9 156.7 1065.85 151.15 1065.85 145.75C1065.85 141.65 1064.9 138.45 1063 136.15C1061.1 133.85 1058.25 132.7 1054.45 132.7C1050.65 132.7 1047.65 134.15 1045.45 137.05C1043.35 139.85 1042.3 143.85 1042.3 149.05H1017.55C1017.75 140.55 1019.55 133.45 1022.95 127.75C1026.45 122.05 1031 117.85 1036.6 115.15C1042.3 112.45 1048.6 111.1 1055.5 111.1C1067.4 111.1 1076.35 114.15 1082.35 120.25C1088.45 126.35 1091.5 134.3 1091.5 144.1C1091.5 154.8 1087.85 164.75 1080.55 173.95C1073.25 183.05 1063.95 191.95 1052.65 200.65H1093.15V221.5H1017.85V202.45ZM1103.99 166.75C1103.99 149.55 1107.29 136 1113.89 126.1C1120.59 116.2 1131.34 111.25 1146.14 111.25C1160.94 111.25 1171.64 116.2 1178.24 126.1C1184.94 136 1188.29 149.55 1188.29 166.75C1188.29 184.15 1184.94 197.8 1178.24 207.7C1171.64 217.6 1160.94 222.55 1146.14 222.55C1131.34 222.55 1120.59 217.6 1113.89 207.7C1107.29 197.8 1103.99 184.15 1103.99 166.75ZM1163.09 166.75C1163.09 156.65 1161.99 148.9 1159.79 143.5C1157.59 138 1153.04 135.25 1146.14 135.25C1139.24 135.25 1134.69 138 1132.49 143.5C1130.29 148.9 1129.19 156.65 1129.19 166.75C1129.19 173.55 1129.59 179.2 1130.39 183.7C1131.19 188.1 1132.79 191.7 1135.19 194.5C1137.69 197.2 1141.34 198.55 1146.14 198.55C1150.94 198.55 1154.54 197.2 1156.94 194.5C1159.44 191.7 1161.09 188.1 1161.89 183.7C1162.69 179.2 1163.09 173.55 1163.09 166.75ZM1200.49 202.45C1203.89 199.75 1205.44 198.5 1205.14 198.7C1214.94 190.6 1222.64 183.95 1228.24 178.75C1233.94 173.55 1238.74 168.1 1242.64 162.4C1246.54 156.7 1248.49 151.15 1248.49 145.75C1248.49 141.65 1247.54 138.45 1245.64 136.15C1243.74 133.85 1240.89 132.7 1237.09 132.7C1233.29 132.7 1230.29 134.15 1228.09 137.05C1225.99 139.85 1224.94 143.85 1224.94 149.05H1200.19C1200.39 140.55 1202.19 133.45 1205.59 127.75C1209.09 122.05 1213.64 117.85 1219.24 115.15C1224.94 112.45 1231.24 111.1 1238.14 111.1C1250.04 111.1 1258.99 114.15 1264.99 120.25C1271.09 126.35 1274.14 134.3 1274.14 144.1C1274.14 154.8 1270.49 164.75 1263.19 173.95C1255.89 183.05 1246.59 191.95 1235.29 200.65H1275.79V221.5H1200.49V202.45ZM1287.24 203.5V182.8L1334.64 115H1363.29V181.3H1375.59V203.5H1363.29V223H1337.64V203.5H1287.24ZM1339.44 143.2L1314.24 181.3H1339.44V143.2Z" fill="#131313"/>
<path d="M643.299 281L631.904 268.174V281H627.081V241.78H631.904V264.835L643.087 251.956H649.818L636.144 266.425L649.871 281H643.299ZM667.024 281.477C664.304 281.477 661.83 280.859 659.604 279.622C657.414 278.385 655.682 276.636 654.41 274.375C653.174 272.078 652.555 269.428 652.555 266.425C652.555 263.457 653.191 260.842 654.463 258.581C655.771 256.284 657.537 254.535 659.763 253.334C661.989 252.097 664.48 251.479 667.236 251.479C669.992 251.479 672.483 252.097 674.709 253.334C676.935 254.535 678.684 256.267 679.956 258.528C681.264 260.789 681.917 263.422 681.917 266.425C681.917 269.428 681.246 272.078 679.903 274.375C678.596 276.636 676.812 278.385 674.55 279.622C672.289 280.859 669.78 281.477 667.024 281.477ZM667.024 277.237C668.756 277.237 670.381 276.831 671.9 276.018C673.42 275.205 674.639 273.986 675.557 272.361C676.511 270.736 676.988 268.757 676.988 266.425C676.988 264.093 676.529 262.114 675.61 260.489C674.692 258.864 673.49 257.662 672.006 256.885C670.522 256.072 668.915 255.666 667.183 255.666C665.417 255.666 663.791 256.072 662.307 256.885C660.859 257.662 659.693 258.864 658.809 260.489C657.926 262.114 657.484 264.093 657.484 266.425C657.484 268.792 657.908 270.789 658.756 272.414C659.64 274.039 660.806 275.258 662.254 276.071C663.703 276.848 665.293 277.237 667.024 277.237ZM702.41 251.426C705.943 251.426 708.805 252.504 710.996 254.659C713.186 256.779 714.282 259.853 714.282 263.881V281H709.512V264.57C709.512 261.673 708.787 259.464 707.339 257.945C705.89 256.39 703.911 255.613 701.403 255.613C698.859 255.613 696.827 256.408 695.308 257.998C693.824 259.588 693.082 261.902 693.082 264.941V281H688.259V251.956H693.082V256.09C694.036 254.606 695.325 253.458 696.951 252.645C698.611 251.832 700.431 251.426 702.41 251.426ZM728.043 255.931V273.05C728.043 274.463 728.343 275.47 728.944 276.071C729.545 276.636 730.587 276.919 732.071 276.919H735.622V281H731.276C728.591 281 726.577 280.382 725.234 279.145C723.891 277.908 723.22 275.877 723.22 273.05V255.931H719.457V251.956H723.22V244.642H728.043V251.956H735.622V255.931H728.043ZM739.664 266.372C739.664 263.404 740.264 260.807 741.466 258.581C742.667 256.32 744.31 254.571 746.395 253.334C748.515 252.097 750.864 251.479 753.444 251.479C755.988 251.479 758.196 252.027 760.069 253.122C761.941 254.217 763.337 255.595 764.256 257.256V251.956H769.132V281H764.256V275.594C763.302 277.29 761.871 278.703 759.963 279.834C758.09 280.929 755.899 281.477 753.391 281.477C750.811 281.477 748.479 280.841 746.395 279.569C744.31 278.297 742.667 276.513 741.466 274.216C740.264 271.919 739.664 269.305 739.664 266.372ZM764.256 266.425C764.256 264.234 763.814 262.326 762.931 260.701C762.047 259.076 760.846 257.839 759.327 256.991C757.843 256.108 756.2 255.666 754.398 255.666C752.596 255.666 750.953 256.09 749.469 256.938C747.985 257.786 746.801 259.023 745.918 260.648C745.034 262.273 744.593 264.181 744.593 266.372C744.593 268.598 745.034 270.541 745.918 272.202C746.801 273.827 747.985 275.082 749.469 275.965C750.953 276.813 752.596 277.237 754.398 277.237C756.2 277.237 757.843 276.813 759.327 275.965C760.846 275.082 762.047 273.827 762.931 272.202C763.814 270.541 764.256 268.616 764.256 266.425ZM793.5 281L782.105 268.174V281H777.282V241.78H782.105V264.835L793.288 251.956H800.019L786.345 266.425L800.072 281H793.5ZM810.442 255.931V273.05C810.442 274.463 810.742 275.47 811.343 276.071C811.943 276.636 812.986 276.919 814.47 276.919H818.021V281H813.675C810.989 281 808.975 280.382 807.633 279.145C806.29 277.908 805.619 275.877 805.619 273.05V255.931H801.856V251.956H805.619V244.642H810.442V251.956H818.021V255.931H810.442ZM850.364 247.027C854.286 247.027 857.696 247.769 860.593 249.253C863.491 250.737 865.717 252.822 867.271 255.507C868.826 258.157 869.603 261.231 869.603 264.729C869.603 267.52 869.144 270.206 868.225 272.785C867.307 275.329 865.964 277.396 864.197 278.986C862.466 280.576 860.434 281.371 858.102 281.371C856.336 281.371 854.975 280.929 854.021 280.046C853.067 279.163 852.52 277.961 852.378 276.442C851.283 277.961 849.887 279.163 848.191 280.046C846.531 280.929 844.764 281.371 842.891 281.371C840.206 281.371 838.086 280.558 836.531 278.933C835.012 277.272 834.252 275.046 834.252 272.255C834.252 269.605 834.8 267.132 835.895 264.835C837.026 262.538 838.581 260.701 840.559 259.323C842.538 257.91 844.782 257.203 847.29 257.203C850.647 257.203 852.908 258.475 854.074 261.019L854.657 257.733H858.844L856.194 273.05C856.088 273.721 856.035 274.34 856.035 274.905C856.035 277.025 856.972 278.085 858.844 278.085C860.258 278.085 861.477 277.414 862.501 276.071C863.561 274.728 864.356 273.05 864.886 271.036C865.416 268.987 865.681 266.973 865.681 264.994C865.681 260.365 864.286 256.779 861.494 254.235C858.738 251.691 854.834 250.419 849.781 250.419C845.577 250.419 841.778 251.444 838.386 253.493C835.03 255.507 832.397 258.281 830.489 261.814C828.581 265.347 827.627 269.252 827.627 273.527C827.592 278.191 828.988 281.777 831.814 284.286C834.641 286.83 838.563 288.102 843.58 288.102C846.902 288.102 849.834 287.501 852.378 286.3L853.014 289.586C849.87 290.893 846.407 291.547 842.626 291.547C838.846 291.547 835.507 290.823 832.609 289.374C829.747 287.961 827.521 285.911 825.931 283.226C824.377 280.576 823.599 277.484 823.599 273.951C823.599 268.969 824.748 264.429 827.044 260.33C829.341 256.196 832.521 252.945 836.584 250.578C840.683 248.211 845.276 247.027 850.364 247.027ZM844.322 277.608C845.912 277.608 847.379 277.149 848.721 276.23C850.064 275.276 851.124 274.004 851.901 272.414C852.679 270.789 853.067 269.022 853.067 267.114C853.067 265.277 852.555 263.793 851.53 262.662C850.541 261.496 849.128 260.913 847.29 260.913C845.594 260.913 844.093 261.425 842.785 262.45C841.513 263.439 840.524 264.764 839.817 266.425C839.111 268.05 838.757 269.746 838.757 271.513C838.757 273.386 839.234 274.87 840.188 275.965C841.142 277.06 842.52 277.608 844.322 277.608ZM889.356 255.931H883.261V281H878.438V255.931H874.675V251.956H878.438V249.889C878.438 246.638 879.268 244.271 880.929 242.787C882.625 241.268 885.328 240.508 889.038 240.508V244.536C886.918 244.536 885.416 244.96 884.533 245.808C883.685 246.621 883.261 247.981 883.261 249.889V251.956H889.356V255.931ZM920.737 251.956V281H915.914V276.707C914.996 278.191 913.706 279.357 912.045 280.205C910.42 281.018 908.618 281.424 906.639 281.424C904.378 281.424 902.346 280.965 900.544 280.046C898.742 279.092 897.311 277.679 896.251 275.806C895.227 273.933 894.714 271.654 894.714 268.969V251.956H899.484V268.333C899.484 271.195 900.209 273.403 901.657 274.958C903.106 276.477 905.085 277.237 907.593 277.237C910.173 277.237 912.204 276.442 913.688 274.852C915.172 273.262 915.914 270.948 915.914 267.909V251.956H920.737ZM934.764 255.931V273.05C934.764 274.463 935.064 275.47 935.665 276.071C936.265 276.636 937.308 276.919 938.792 276.919H942.343V281H937.997C935.311 281 933.297 280.382 931.955 279.145C930.612 277.908 929.941 275.877 929.941 273.05V255.931H926.178V251.956H929.941V244.642H934.764V251.956H942.343V255.931H934.764ZM973.944 251.956V281H969.121V276.707C968.203 278.191 966.913 279.357 965.252 280.205C963.627 281.018 961.825 281.424 959.846 281.424C957.585 281.424 955.553 280.965 953.751 280.046C951.949 279.092 950.518 277.679 949.458 275.806C948.434 273.933 947.921 271.654 947.921 268.969V251.956H952.691V268.333C952.691 271.195 953.416 273.403 954.864 274.958C956.313 276.477 958.292 277.237 960.8 277.237C963.38 277.237 965.411 276.442 966.895 274.852C968.379 273.262 969.121 270.948 969.121 267.909V251.956H973.944ZM986.911 256.673C987.759 255.012 988.96 253.723 990.515 252.804C992.105 251.885 994.031 251.426 996.292 251.426V256.408H995.02C989.614 256.408 986.911 259.341 986.911 265.206V281H982.088V251.956H986.911V256.673ZM1028.36 265.365C1028.36 266.284 1028.31 267.255 1028.2 268.28H1004.99C1005.16 271.142 1006.13 273.386 1007.9 275.011C1009.7 276.601 1011.88 277.396 1014.42 277.396C1016.5 277.396 1018.24 276.919 1019.61 275.965C1021.03 274.976 1022.02 273.668 1022.58 272.043H1027.78C1027 274.834 1025.44 277.113 1023.11 278.88C1020.78 280.611 1017.88 281.477 1014.42 281.477C1011.66 281.477 1009.19 280.859 1007 279.622C1004.84 278.385 1003.15 276.636 1001.91 274.375C1000.68 272.078 1000.06 269.428 1000.06 266.425C1000.06 263.422 1000.66 260.789 1001.86 258.528C1003.06 256.267 1004.74 254.535 1006.89 253.334C1009.08 252.097 1011.59 251.479 1014.42 251.479C1017.18 251.479 1019.61 252.08 1021.73 253.281C1023.85 254.482 1025.48 256.143 1026.61 258.263C1027.78 260.348 1028.36 262.715 1028.36 265.365ZM1023.38 264.358C1023.38 262.521 1022.97 260.948 1022.16 259.641C1021.35 258.298 1020.23 257.291 1018.82 256.62C1017.44 255.913 1015.9 255.56 1014.21 255.56C1011.77 255.56 1009.69 256.337 1007.95 257.892C1006.26 259.447 1005.29 261.602 1005.04 264.358H1023.38ZM1073.42 251.956L1064.35 281H1059.37L1052.37 257.945L1045.38 281H1040.4L1031.28 251.956H1036.21L1042.89 276.336L1050.1 251.956H1055.02L1062.07 276.389L1068.65 251.956H1073.42ZM1104.7 265.365C1104.7 266.284 1104.65 267.255 1104.54 268.28H1081.33C1081.51 271.142 1082.48 273.386 1084.24 275.011C1086.05 276.601 1088.22 277.396 1090.76 277.396C1092.85 277.396 1094.58 276.919 1095.96 275.965C1097.37 274.976 1098.36 273.668 1098.93 272.043H1104.12C1103.34 274.834 1101.79 277.113 1099.46 278.88C1097.12 280.611 1094.23 281.477 1090.76 281.477C1088.01 281.477 1085.53 280.859 1083.34 279.622C1081.19 278.385 1079.49 276.636 1078.26 274.375C1077.02 272.078 1076.4 269.428 1076.4 266.425C1076.4 263.422 1077 260.789 1078.2 258.528C1079.4 256.267 1081.08 254.535 1083.24 253.334C1085.43 252.097 1087.94 251.479 1090.76 251.479C1093.52 251.479 1095.96 252.08 1098.08 253.281C1100.2 254.482 1101.82 256.143 1102.95 258.263C1104.12 260.348 1104.7 262.715 1104.7 265.365ZM1099.72 264.358C1099.72 262.521 1099.31 260.948 1098.5 259.641C1097.69 258.298 1096.58 257.291 1095.16 256.62C1093.78 255.913 1092.25 255.56 1090.55 255.56C1088.11 255.56 1086.03 256.337 1084.3 257.892C1082.6 259.447 1081.63 261.602 1081.38 264.358H1099.72ZM1115.89 257.362C1116.88 255.631 1118.33 254.217 1120.24 253.122C1122.15 252.027 1124.32 251.479 1126.76 251.479C1129.37 251.479 1131.72 252.097 1133.81 253.334C1135.89 254.571 1137.53 256.32 1138.73 258.581C1139.94 260.807 1140.54 263.404 1140.54 266.372C1140.54 269.305 1139.94 271.919 1138.73 274.216C1137.53 276.513 1135.87 278.297 1133.75 279.569C1131.67 280.841 1129.34 281.477 1126.76 281.477C1124.25 281.477 1122.04 280.929 1120.13 279.834C1118.26 278.739 1116.85 277.343 1115.89 275.647V281H1111.07V241.78H1115.89V257.362ZM1135.61 266.372C1135.61 264.181 1135.17 262.273 1134.28 260.648C1133.4 259.023 1132.2 257.786 1130.68 256.938C1129.19 256.09 1127.55 255.666 1125.75 255.666C1123.98 255.666 1122.34 256.108 1120.82 256.991C1119.34 257.839 1118.13 259.093 1117.22 260.754C1116.33 262.379 1115.89 264.27 1115.89 266.425C1115.89 268.616 1116.33 270.541 1117.22 272.202C1118.13 273.827 1119.34 275.082 1120.82 275.965C1122.34 276.813 1123.98 277.237 1125.75 277.237C1127.55 277.237 1129.19 276.813 1130.68 275.965C1132.2 275.082 1133.4 273.827 1134.28 272.202C1135.17 270.541 1135.61 268.598 1135.61 266.372ZM1157.17 281.477C1154.94 281.477 1152.94 281.106 1151.18 280.364C1149.41 279.587 1148.02 278.527 1146.99 277.184C1145.97 275.806 1145.4 274.234 1145.29 272.467H1150.28C1150.42 273.916 1151.09 275.099 1152.29 276.018C1153.53 276.937 1155.14 277.396 1157.11 277.396C1158.95 277.396 1160.4 276.99 1161.46 276.177C1162.52 275.364 1163.05 274.34 1163.05 273.103C1163.05 271.831 1162.48 270.895 1161.35 270.294C1160.22 269.658 1158.47 269.04 1156.11 268.439C1153.95 267.874 1152.18 267.308 1150.81 266.743C1149.46 266.142 1148.3 265.277 1147.31 264.146C1146.35 262.98 1145.88 261.461 1145.88 259.588C1145.88 258.104 1146.32 256.744 1147.2 255.507C1148.09 254.27 1149.34 253.299 1150.97 252.592C1152.59 251.85 1154.45 251.479 1156.53 251.479C1159.75 251.479 1162.34 252.292 1164.32 253.917C1166.3 255.542 1167.36 257.768 1167.5 260.595H1162.68C1162.57 259.076 1161.95 257.857 1160.82 256.938C1159.73 256.019 1158.24 255.56 1156.37 255.56C1154.64 255.56 1153.26 255.931 1152.24 256.673C1151.21 257.415 1150.7 258.387 1150.7 259.588C1150.7 260.542 1151 261.337 1151.6 261.973C1152.24 262.574 1153.02 263.068 1153.93 263.457C1154.89 263.81 1156.2 264.217 1157.86 264.676C1159.94 265.241 1161.64 265.807 1162.94 266.372C1164.25 266.902 1165.36 267.715 1166.28 268.81C1167.24 269.905 1167.73 271.336 1167.77 273.103C1167.77 274.693 1167.33 276.124 1166.44 277.396C1165.56 278.668 1164.3 279.675 1162.68 280.417C1161.09 281.124 1159.25 281.477 1157.17 281.477ZM1180.46 255.931V273.05C1180.46 274.463 1180.76 275.47 1181.36 276.071C1181.96 276.636 1183 276.919 1184.49 276.919H1188.04V281H1183.69C1181.01 281 1178.99 280.382 1177.65 279.145C1176.31 277.908 1175.64 275.877 1175.64 273.05V255.931H1171.87V251.956H1175.64V244.642H1180.46V251.956H1188.04V255.931H1180.46ZM1219.64 251.956V281H1214.82V276.707C1213.9 278.191 1212.61 279.357 1210.95 280.205C1209.32 281.018 1207.52 281.424 1205.54 281.424C1203.28 281.424 1201.25 280.965 1199.45 280.046C1197.64 279.092 1196.21 277.679 1195.15 275.806C1194.13 273.933 1193.62 271.654 1193.62 268.969V251.956H1198.39V268.333C1198.39 271.195 1199.11 273.403 1200.56 274.958C1202.01 276.477 1203.99 277.237 1206.49 277.237C1209.07 277.237 1211.11 276.442 1212.59 274.852C1214.07 273.262 1214.82 270.948 1214.82 267.909V251.956H1219.64ZM1225.98 266.372C1225.98 263.404 1226.58 260.807 1227.78 258.581C1228.98 256.32 1230.63 254.571 1232.71 253.334C1234.83 252.097 1237.2 251.479 1239.81 251.479C1242.07 251.479 1244.18 252.009 1246.12 253.069C1248.06 254.094 1249.55 255.454 1250.57 257.15V241.78H1255.45V281H1250.57V275.541C1249.62 277.272 1248.2 278.703 1246.33 279.834C1244.46 280.929 1242.27 281.477 1239.76 281.477C1237.18 281.477 1234.83 280.841 1232.71 279.569C1230.63 278.297 1228.98 276.513 1227.78 274.216C1226.58 271.919 1225.98 269.305 1225.98 266.372ZM1250.57 266.425C1250.57 264.234 1250.13 262.326 1249.25 260.701C1248.36 259.076 1247.16 257.839 1245.64 256.991C1244.16 256.108 1242.52 255.666 1240.71 255.666C1238.91 255.666 1237.27 256.09 1235.79 256.938C1234.3 257.786 1233.12 259.023 1232.23 260.648C1231.35 262.273 1230.91 264.181 1230.91 266.372C1230.91 268.598 1231.35 270.541 1232.23 272.202C1233.12 273.827 1234.3 275.082 1235.79 275.965C1237.27 276.813 1238.91 277.237 1240.71 277.237C1242.52 277.237 1244.16 276.813 1245.64 275.965C1247.16 275.082 1248.36 273.827 1249.25 272.202C1250.13 270.541 1250.57 268.616 1250.57 266.425ZM1266.09 247.239C1265.17 247.239 1264.39 246.921 1263.76 246.285C1263.12 245.649 1262.8 244.872 1262.8 243.953C1262.8 243.034 1263.12 242.257 1263.76 241.621C1264.39 240.985 1265.17 240.667 1266.09 240.667C1266.97 240.667 1267.71 240.985 1268.32 241.621C1268.95 242.257 1269.27 243.034 1269.27 243.953C1269.27 244.872 1268.95 245.649 1268.32 246.285C1267.71 246.921 1266.97 247.239 1266.09 247.239ZM1268.42 251.956V281H1263.6V251.956H1268.42ZM1289.31 281.477C1286.59 281.477 1284.11 280.859 1281.89 279.622C1279.7 278.385 1277.97 276.636 1276.69 274.375C1275.46 272.078 1274.84 269.428 1274.84 266.425C1274.84 263.457 1275.48 260.842 1276.75 258.581C1278.05 256.284 1279.82 254.535 1282.05 253.334C1284.27 252.097 1286.76 251.479 1289.52 251.479C1292.28 251.479 1294.77 252.097 1296.99 253.334C1299.22 254.535 1300.97 256.267 1302.24 258.528C1303.55 260.789 1304.2 263.422 1304.2 266.425C1304.2 269.428 1303.53 272.078 1302.19 274.375C1300.88 276.636 1299.1 278.385 1296.83 279.622C1294.57 280.859 1292.06 281.477 1289.31 281.477ZM1289.31 277.237C1291.04 277.237 1292.67 276.831 1294.18 276.018C1295.7 275.205 1296.92 273.986 1297.84 272.361C1298.8 270.736 1299.27 268.757 1299.27 266.425C1299.27 264.093 1298.81 262.114 1297.89 260.489C1296.98 258.864 1295.77 257.662 1294.29 256.885C1292.81 256.072 1291.2 255.666 1289.47 255.666C1287.7 255.666 1286.08 256.072 1284.59 256.885C1283.14 257.662 1281.98 258.864 1281.09 260.489C1280.21 262.114 1279.77 264.093 1279.77 266.425C1279.77 268.792 1280.19 270.789 1281.04 272.414C1281.92 274.039 1283.09 275.258 1284.54 276.071C1285.99 276.848 1287.58 277.237 1289.31 277.237ZM1312.08 281.318C1311.16 281.318 1310.38 281 1309.75 280.364C1309.11 279.728 1308.79 278.951 1308.79 278.032C1308.79 277.113 1309.11 276.336 1309.75 275.7C1310.38 275.064 1311.16 274.746 1312.08 274.746C1312.96 274.746 1313.71 275.064 1314.31 275.7C1314.94 276.336 1315.26 277.113 1315.26 278.032C1315.26 278.951 1314.94 279.728 1314.31 280.364C1313.71 281 1312.96 281.318 1312.08 281.318ZM1326.49 257.309C1327.45 255.648 1328.86 254.27 1330.73 253.175C1332.64 252.044 1334.85 251.479 1337.36 251.479C1339.94 251.479 1342.27 252.097 1344.35 253.334C1346.47 254.571 1348.14 256.32 1349.34 258.581C1350.54 260.807 1351.14 263.404 1351.14 266.372C1351.14 269.305 1350.54 271.919 1349.34 274.216C1348.14 276.513 1346.47 278.297 1344.35 279.569C1342.27 280.841 1339.94 281.477 1337.36 281.477C1334.89 281.477 1332.69 280.929 1330.79 279.834C1328.91 278.703 1327.48 277.308 1326.49 275.647V294.78H1321.67V251.956H1326.49V257.309ZM1346.21 266.372C1346.21 264.181 1345.77 262.273 1344.88 260.648C1344 259.023 1342.8 257.786 1341.28 256.938C1339.8 256.09 1338.15 255.666 1336.35 255.666C1334.59 255.666 1332.94 256.108 1331.42 256.991C1329.94 257.839 1328.74 259.093 1327.82 260.754C1326.94 262.379 1326.49 264.27 1326.49 266.425C1326.49 268.616 1326.94 270.541 1327.82 272.202C1328.74 273.827 1329.94 275.082 1331.42 275.965C1332.94 276.813 1334.59 277.237 1336.35 277.237C1338.15 277.237 1339.8 276.813 1341.28 275.965C1342.8 275.082 1344 273.827 1344.88 272.202C1345.77 270.541 1346.21 268.598 1346.21 266.372ZM1362.31 241.78V281H1357.49V241.78H1362.31Z" fill="#131313"/>
<rect x="105" y="11" width="6" height="271" fill="#131313"/>
<rect x="174" y="11" width="12" height="271" fill="#131313"/>
<rect x="130" y="11" width="6" height="271" fill="#131313"/>
<rect x="114" y="11" width="12" height="271" fill="#131313"/>
<rect x="146" y="11" width="6" height="271" fill="#131313"/>
<rect width="9" height="271" transform="matrix(-1 0 0 1 199 11)" fill="#131313"/>
<rect y="11" width="7" height="271" fill="#131313"/>
<rect x="47" y="11" width="9" height="271" fill="#131313"/>
<rect x="10" y="11" width="3" height="271" fill="#131313"/>
<rect x="20" y="11" width="3" height="271" fill="#131313"/>
<rect x="35" y="11" width="8" height="271" fill="#131313"/>
<rect width="12" height="271" transform="matrix(-1 0 0 1 101 11)" fill="#131313"/>
<rect width="3" height="271" transform="matrix(-1 0 0 1 73 11)" fill="#131313"/>
<rect width="3" height="271" transform="matrix(-1 0 0 1 142 11)" fill="#131313"/>
<rect width="3" height="271" transform="matrix(-1 0 0 1 83 11)" fill="#131313"/>
<rect width="3" height="271" transform="matrix(-1 0 0 1 161 11)" fill="#131313"/>
<rect width="3" height="271" transform="matrix(-1 0 0 1 231 11)" fill="#131313"/>
<rect width="3" height="271" transform="matrix(-1 0 0 1 266 11)" fill="#131313"/>
<rect width="3" height="271" transform="matrix(-1 0 0 1 275 11)" fill="#131313"/>
<rect width="3" height="271" transform="matrix(-1 0 0 1 316 11)" fill="#131313"/>
<rect width="3" height="271" transform="matrix(-1 0 0 1 206 11)" fill="#131313"/>
<rect width="3" height="271" transform="matrix(-1 0 0 1 212 11)" fill="#131313"/>
<rect width="6" height="271" transform="matrix(-1 0 0 1 66 11)" fill="#131313"/>
<rect width="9" height="271" transform="matrix(-1 0 0 1 547 11)" fill="#131313"/>
<rect width="6" height="271" transform="matrix(-1 0 0 1 500 11)" fill="#131313"/>
<rect width="11" height="271" transform="matrix(-1 0 0 1 471 11)" fill="#131313"/>
<rect width="6" height="271" transform="matrix(-1 0 0 1 528 11)" fill="#131313"/>
<rect width="6" height="271" transform="matrix(-1 0 0 1 563 11)" fill="#131313"/>
<rect x="320" y="11" width="9" height="271" fill="#131313"/>
<rect x="332" y="11" width="6" height="271" fill="#131313"/>
<rect x="363" y="11" width="6" height="271" fill="#131313"/>
<rect x="402" y="11" width="12" height="271" fill="#131313"/>
<rect x="347" y="11" width="3" height="271" fill="#131313"/>
<rect x="373" y="11" width="3" height="271" fill="#131313"/>
<rect x="383" y="11" width="3" height="271" fill="#131313"/>
<rect x="392" y="11" width="3" height="271" fill="#131313"/>
<rect x="418" y="11" width="3" height="271" fill="#131313"/>
<rect x="446" y="11" width="3" height="271" fill="#131313"/>
<rect x="478" y="11" width="3" height="271" fill="#131313"/>
<rect x="487" y="11" width="3" height="271" fill="#131313"/>
<rect x="513" y="11" width="3" height="271" fill="#131313"/>
<rect x="551" y="11" width="3" height="271" fill="#131313"/>
<rect x="453" y="11" width="3" height="271" fill="#131313"/>
<rect x="216" y="11" width="5" height="271" fill="#131313"/>
<rect x="243" y="11" width="6" height="271" fill="#131313"/>
<rect width="11" height="271" transform="matrix(-1 0 0 1 441 11)" fill="#131313"/>
<rect width="6" height="271" transform="matrix(-1 0 0 1 307 11)" fill="#131313"/>
<rect width="6" height="271" transform="matrix(-1 0 0 1 284 11)" fill="#131313"/>
<rect width="6" height="271" transform="matrix(-1 0 0 1 294 11)" fill="#131313"/>
<path d="M704.55 150.6C704.55 156.7 703.15 162.3 700.35 167.4C697.55 172.4 693.25 176.45 687.45 179.55C681.65 182.65 674.45 184.2 665.85 184.2H649.95V222H624.3V116.7H665.85C674.25 116.7 681.35 118.15 687.15 121.05C692.95 123.95 697.3 127.95 700.2 133.05C703.1 138.15 704.55 144 704.55 150.6ZM663.9 163.8C668.8 163.8 672.45 162.65 674.85 160.35C677.25 158.05 678.45 154.8 678.45 150.6C678.45 146.4 677.25 143.15 674.85 140.85C672.45 138.55 668.8 137.4 663.9 137.4H649.95V163.8H663.9ZM839.704 116.7V222H814.054V158.85L790.504 222H769.804L746.104 158.7V222H720.454V116.7H750.754L780.304 189.6L809.554 116.7H839.704Z" fill="#131313"/>
<path d="M973.56 159.08L969.96 175.496H986.664V201.128H964.488L960.312 221H933.96L938.136 201.128H916.104L911.928 221H885.72L889.896 201.128H869.16V175.496H895.368L898.968 159.08H878.664V133.448H904.44L908.472 114.44H934.68L930.648 133.448H952.68L956.712 114.44H983.064L979.032 133.448H996.168V159.08H973.56ZM947.208 159.08H925.176L921.576 175.496H943.608L947.208 159.08Z" fill="#131313"/>
</g>
<defs>
<clipPath id="clip0_2876_68">
<rect width="1369" height="297" fill="white"/>
</clipPath>
</defs>
</svg>
