<svg width="165" height="46" viewBox="0 0 165 46" fill="none" xmlns="http://www.w3.org/2000/svg">
<g clip-path="url(#clip0_3526_2)">
<mask id="path-1-inside-1_3526_2" fill="white">
<rect width="46" height="46" rx="2"/>
</mask>
<rect width="46" height="46" rx="2" stroke="var(--color-dark-1)" stroke-width="8" mask="url(#path-1-inside-1_3526_2)"/>
<path d="M44.0554 46.0604C45.2014 46.0585 46.1289 45.1281 46.1271 43.9821L46.0974 25.3071C46.0956 24.1611 45.1651 23.2336 44.0192 23.2354C42.8732 23.2372 41.9456 24.1677 41.9474 25.3137L41.9738 41.9137L25.3738 41.94C24.2278 41.9418 23.3003 42.8723 23.3021 44.0183C23.3039 45.1643 24.2344 46.0918 25.3804 46.09L44.0554 46.0604ZM21.5349 24.4694L42.5872 45.4549L45.517 42.5158L24.4647 21.5302L21.5349 24.4694Z" fill="#31FF8B"/>
<circle cx="23.1" cy="23.1" r="2.1" fill="#31FF8B"/>
<path d="M68.168 6.904C68.168 8.392 67.704 9.552 66.776 10.384C65.848 11.2 64.472 11.608 62.648 11.608H59.048V19H57.968V2.152H62.648C64.504 2.152 65.888 2.584 66.8 3.448C67.712 4.296 68.168 5.448 68.168 6.904ZM62.648 10.648C65.608 10.648 67.088 9.4 67.088 6.904C67.088 5.672 66.736 4.736 66.032 4.096C65.328 3.44 64.2 3.112 62.648 3.112H59.048V10.648H62.648ZM81.6056 19L77.2856 11.824H77.1896H73.5896V19H72.5096V2.152H77.1416C79.0136 2.152 80.4136 2.592 81.3416 3.472C82.2856 4.352 82.7576 5.52 82.7576 6.976C82.7576 8.272 82.3896 9.344 81.6536 10.192C80.9336 11.024 79.8776 11.536 78.4856 11.728L82.9016 19H81.6056ZM73.5896 10.912H77.1896C78.6776 10.912 79.7896 10.552 80.5256 9.832C81.2616 9.112 81.6296 8.16 81.6296 6.976C81.6296 4.4 80.1336 3.112 77.1416 3.112H73.5896V10.912ZM87.6187 18.04H96.6427V19H86.3707V18.088L95.2267 3.136H86.6107V2.152H96.4747V3.088L87.6187 18.04ZM102.063 3.064V10.096H108.783V11.008H102.063V18.088H109.503V19H100.983V2.152H109.503V3.064H102.063ZM129.932 2.512V19H128.852V4.768L122.516 19H121.652L115.292 4.768V19H114.212V2.512H115.364L122.084 17.584L128.804 2.512H129.932ZM136.42 3.064V10.096H143.14V11.008H136.42V18.088H143.86V19H135.34V2.152H143.86V3.064H136.42ZM157.401 19L149.649 11.056V19H148.569V2.152H149.649V10.168L157.401 2.152H158.793L150.585 10.6L158.817 19H157.401Z" fill="var(--color-dark-1)"/>
<path d="M57.726 44V23.7H60.829L69.703 38.519H68.079L76.808 23.7H79.911L79.94 44H76.373L76.344 29.297H77.098L69.674 41.68H67.992L60.452 29.297H61.322V44H57.726ZM86.5833 44V23.7H90.3533V44H86.5833ZM97.004 44V23.7H105.356C107.154 23.7 108.691 23.99 109.967 24.57C111.262 25.15 112.258 25.9813 112.954 27.064C113.65 28.1467 113.998 29.4323 113.998 30.921C113.998 32.4097 113.65 33.6953 112.954 34.778C112.258 35.8413 111.262 36.663 109.967 37.243C108.691 37.8037 107.154 38.084 105.356 38.084H99.092L100.774 36.373V44H97.004ZM110.286 44L105.153 36.634H109.184L114.346 44H110.286ZM100.774 36.779L99.092 34.981H105.182C106.845 34.981 108.092 34.6233 108.923 33.908C109.774 33.1927 110.199 32.197 110.199 30.921C110.199 29.6257 109.774 28.63 108.923 27.934C108.092 27.238 106.845 26.89 105.182 26.89H99.092L100.774 25.034V36.779ZM128.888 44.29C127.303 44.29 125.843 44.029 124.509 43.507C123.175 42.985 122.015 42.26 121.029 41.332C120.043 40.3847 119.279 39.2827 118.738 38.026C118.197 36.75 117.926 35.358 117.926 33.85C117.926 32.342 118.197 30.9597 118.738 29.703C119.279 28.427 120.043 27.325 121.029 26.397C122.015 25.4497 123.175 24.715 124.509 24.193C125.843 23.671 127.293 23.41 128.859 23.41C130.444 23.41 131.894 23.671 133.209 24.193C134.543 24.715 135.703 25.4497 136.689 26.397C137.675 27.325 138.439 28.427 138.98 29.703C139.521 30.9597 139.792 32.342 139.792 33.85C139.792 35.358 139.521 36.75 138.98 38.026C138.439 39.302 137.675 40.404 136.689 41.332C135.703 42.26 134.543 42.985 133.209 43.507C131.894 44.029 130.454 44.29 128.888 44.29ZM128.859 40.984C129.884 40.984 130.831 40.81 131.701 40.462C132.571 40.114 133.325 39.621 133.963 38.983C134.601 38.3257 135.094 37.5717 135.442 36.721C135.809 35.851 135.993 34.894 135.993 33.85C135.993 32.806 135.809 31.8587 135.442 31.008C135.094 30.138 134.601 29.384 133.963 28.746C133.325 28.0887 132.571 27.586 131.701 27.238C130.831 26.89 129.884 26.716 128.859 26.716C127.834 26.716 126.887 26.89 126.017 27.238C125.166 27.586 124.412 28.0887 123.755 28.746C123.117 29.384 122.614 30.138 122.247 31.008C121.899 31.8587 121.725 32.806 121.725 33.85C121.725 34.8747 121.899 35.822 122.247 36.692C122.614 37.562 123.117 38.3257 123.755 38.983C124.393 39.621 125.147 40.114 126.017 40.462C126.887 40.81 127.834 40.984 128.859 40.984ZM151.241 44.29C149.656 44.29 148.138 44.0677 146.688 43.623C145.238 43.159 144.088 42.5693 143.237 41.854L144.542 38.925C145.354 39.563 146.359 40.0947 147.558 40.52C148.757 40.9453 149.984 41.158 151.241 41.158C152.304 41.158 153.165 41.042 153.822 40.81C154.479 40.578 154.963 40.2687 155.272 39.882C155.581 39.476 155.736 39.0217 155.736 38.519C155.736 37.9003 155.514 37.4073 155.069 37.04C154.624 36.6533 154.044 36.3537 153.329 36.141C152.633 35.909 151.85 35.6963 150.98 35.503C150.129 35.3097 149.269 35.0873 148.399 34.836C147.548 34.5653 146.765 34.227 146.05 33.821C145.354 33.3957 144.784 32.835 144.339 32.139C143.894 31.443 143.672 30.5537 143.672 29.471C143.672 28.369 143.962 27.3637 144.542 26.455C145.141 25.527 146.04 24.7923 147.239 24.251C148.457 23.6903 149.994 23.41 151.85 23.41C153.068 23.41 154.276 23.5647 155.475 23.874C156.674 24.1833 157.718 24.628 158.607 25.208L157.418 28.137C156.509 27.5957 155.572 27.1993 154.605 26.948C153.638 26.6773 152.71 26.542 151.821 26.542C150.777 26.542 149.926 26.6677 149.269 26.919C148.631 27.1703 148.157 27.499 147.848 27.905C147.558 28.311 147.413 28.775 147.413 29.297C147.413 29.9157 147.626 30.4183 148.051 30.805C148.496 31.1723 149.066 31.4623 149.762 31.675C150.477 31.8877 151.27 32.1003 152.14 32.313C153.01 32.5063 153.87 32.7287 154.721 32.98C155.591 33.2313 156.374 33.56 157.07 33.966C157.785 34.372 158.356 34.923 158.781 35.619C159.226 36.315 159.448 37.1947 159.448 38.258C159.448 39.3407 159.148 40.346 158.549 41.274C157.969 42.1827 157.07 42.9173 155.852 43.478C154.634 44.0193 153.097 44.29 151.241 44.29Z" fill="var(--color-dark-1)"/>
</g>
<defs>
    <style>
        :root {
            --color-accent-1: #31ff8b;
            --color-accent-2: #5151f3;
            --color-dark-1: #090c0f;
            --color-dark-2: #121416;
            --color-light-1: #fafaf8;
            --color-light-2: #f0f2f4;
            --color-heading: #101b2b;
            --color-text: #5e6265;
            --color-border: #74787b;
        }
        
        @media (prefers-color-scheme:dark) {
            :root {
            --color-dark-1: #fafaf8;
            --color-dark-2: #f0f2f4;
            --color-light-1: #090c0f;
            --color-light-2: #121416;
            --color-heading: #fff;
            --color-text: #bcbcbc;
            --color-border: #74787b;
            }
          }
          
    </style>
<clipPath id="clip0_3526_2">
<rect width="165" height="46" fill="white"/>
</clipPath>
</defs>
</svg>
