<svg width="1369" height="297" viewBox="0 0 1369 297" fill="none" xmlns="http://www.w3.org/2000/svg">
<g clip-path="url(#clip0_2876_68)">
<mask id="path-1-outside-1_2876_68" maskUnits="userSpaceOnUse" x="620" y="13" width="738" height="72" fill="black">
<rect fill="var(--color-light-1)" x="620" y="13" width="738" height="72"/>
<path d="M667.734 36.128C667.734 39.4493 666.951 42.5827 665.384 45.528C663.817 48.4733 661.311 50.886 657.864 52.766C654.417 54.5833 649.999 55.492 644.61 55.492H632.766V82H622.05V16.67H644.61C649.623 16.67 653.853 17.5473 657.3 19.302C660.809 20.994 663.41 23.3127 665.102 26.258C666.857 29.2033 667.734 32.4933 667.734 36.128ZM644.61 46.75C648.683 46.75 651.723 45.8413 653.728 44.024C655.733 42.144 656.736 39.512 656.736 36.128C656.736 28.984 652.694 25.412 644.61 25.412H632.766V46.75H644.61ZM713.204 82L698.164 55.868H689.986V82H679.27V16.67H701.83C706.844 16.67 711.074 17.5473 714.52 19.302C718.03 21.0567 720.63 23.4067 722.322 26.352C724.077 29.2973 724.954 32.5873 724.954 36.222C724.954 40.4833 723.701 44.3687 721.194 47.878C718.75 51.3247 714.959 53.6747 709.82 54.928L725.988 82H713.204ZM689.986 47.314H701.83C705.841 47.314 708.849 46.3113 710.854 44.306C712.922 42.3007 713.956 39.606 713.956 36.222C713.956 32.838 712.954 30.206 710.948 28.326C708.943 26.3833 705.904 25.412 701.83 25.412H689.986V47.314ZM750.319 72.694H780.681V82H737.629V73.634L767.897 25.976H737.629V16.67H780.681V25.036L750.319 72.694ZM804.427 25.318V44.494H826.987V53.236H804.427V73.258H829.807V82H793.711V16.576H829.807V25.318H804.427ZM913.13 16.67V82H902.414V37.256L882.486 82H875.06L855.038 37.256V82H844.322V16.67H855.884L878.82 67.9L901.662 16.67H913.13ZM939.246 25.318V44.494H961.806V53.236H939.246V73.258H964.626V82H928.53V16.576H964.626V25.318H939.246ZM1015.14 82L989.857 52.766V82H979.141V16.67H989.857V46.468L1015.24 16.67H1028.68L1000.29 49.382L1029.15 82H1015.14ZM1134.48 16.67V82H1123.77V37.256L1103.84 82H1096.41L1076.39 37.256V82H1065.68V16.67H1077.24L1100.17 67.9L1123.02 16.67H1134.48ZM1160.6 16.67V82H1149.88V16.67H1160.6ZM1209.92 82L1194.88 55.868H1186.7V82H1175.99V16.67H1198.55C1203.56 16.67 1207.79 17.5473 1211.24 19.302C1214.74 21.0567 1217.35 23.4067 1219.04 26.352C1220.79 29.2973 1221.67 32.5873 1221.67 36.222C1221.67 40.4833 1220.42 44.3687 1217.91 47.878C1215.47 51.3247 1211.67 53.6747 1206.54 54.928L1222.7 82H1209.92ZM1186.7 47.314H1198.55C1202.56 47.314 1205.56 46.3113 1207.57 44.306C1209.64 42.3007 1210.67 39.606 1210.67 36.222C1210.67 32.838 1209.67 30.206 1207.66 28.326C1205.66 26.3833 1202.62 25.412 1198.55 25.412H1186.7V47.314ZM1266.49 82.658C1260.41 82.658 1254.8 81.248 1249.67 78.428C1244.59 75.5453 1240.55 71.566 1237.54 66.49C1234.59 61.3513 1233.12 55.586 1233.12 49.194C1233.12 42.802 1234.59 37.068 1237.54 31.992C1240.55 26.916 1244.59 22.968 1249.67 20.148C1254.8 17.2653 1260.41 15.824 1266.49 15.824C1272.63 15.824 1278.24 17.2653 1283.32 20.148C1288.46 22.968 1292.5 26.916 1295.44 31.992C1298.39 37.068 1299.86 42.802 1299.86 49.194C1299.86 55.586 1298.39 61.3513 1295.44 66.49C1292.5 71.566 1288.46 75.5453 1283.32 78.428C1278.24 81.248 1272.63 82.658 1266.49 82.658ZM1266.49 73.352C1270.82 73.352 1274.67 72.3807 1278.05 70.438C1281.44 68.4327 1284.07 65.6127 1285.95 61.978C1287.89 58.2807 1288.86 54.0193 1288.86 49.194C1288.86 44.3687 1287.89 40.1387 1285.95 36.504C1284.07 32.8693 1281.44 30.0807 1278.05 28.138C1274.67 26.1953 1270.82 25.224 1266.49 25.224C1262.17 25.224 1258.31 26.1953 1254.93 28.138C1251.55 30.0807 1248.88 32.8693 1246.94 36.504C1245.06 40.1387 1244.12 44.3687 1244.12 49.194C1244.12 54.0193 1245.06 58.2807 1246.94 61.978C1248.88 65.6127 1251.55 68.4327 1254.93 70.438C1258.31 72.3807 1262.17 73.352 1266.49 73.352ZM1333.25 82.658C1328.86 82.658 1324.91 81.906 1321.4 80.402C1317.9 78.8353 1315.14 76.642 1313.13 73.822C1311.13 71.002 1310.12 67.712 1310.12 63.952H1321.59C1321.84 66.772 1322.94 69.0907 1324.88 70.908C1326.89 72.7253 1329.68 73.634 1333.25 73.634C1336.95 73.634 1339.83 72.7567 1341.9 71.002C1343.96 69.1847 1345 66.866 1345 64.046C1345 61.8527 1344.34 60.0667 1343.02 58.688C1341.77 57.3093 1340.17 56.244 1338.23 55.492C1336.35 54.74 1333.72 53.9253 1330.33 53.048C1326.07 51.92 1322.6 50.792 1319.9 49.664C1317.27 48.4733 1315.01 46.656 1313.13 44.212C1311.25 41.768 1310.31 38.5093 1310.31 34.436C1310.31 30.676 1311.25 27.386 1313.13 24.566C1315.01 21.746 1317.64 19.584 1321.03 18.08C1324.41 16.576 1328.33 15.824 1332.78 15.824C1339.11 15.824 1344.28 17.422 1348.29 20.618C1352.36 23.7513 1354.62 28.0753 1355.06 33.59H1343.21C1343.02 31.2087 1341.9 29.172 1339.83 27.48C1337.76 25.788 1335.03 24.942 1331.65 24.942C1328.58 24.942 1326.07 25.7253 1324.13 27.292C1322.19 28.8587 1321.22 31.1147 1321.22 34.06C1321.22 36.0653 1321.81 37.726 1323 39.042C1324.26 40.2953 1325.82 41.298 1327.7 42.05C1329.58 42.802 1332.15 43.6167 1335.41 44.494C1339.73 45.6847 1343.24 46.8753 1345.94 48.066C1348.7 49.2567 1351.01 51.1053 1352.89 53.612C1354.84 56.056 1355.81 59.346 1355.81 63.482C1355.81 66.8033 1354.9 69.9367 1353.08 72.882C1351.33 75.8273 1348.73 78.2087 1345.28 80.026C1341.9 81.7807 1337.89 82.658 1333.25 82.658Z"/>
</mask>
<path d="M667.734 36.128C667.734 39.4493 666.951 42.5827 665.384 45.528C663.817 48.4733 661.311 50.886 657.864 52.766C654.417 54.5833 649.999 55.492 644.61 55.492H632.766V82H622.05V16.67H644.61C649.623 16.67 653.853 17.5473 657.3 19.302C660.809 20.994 663.41 23.3127 665.102 26.258C666.857 29.2033 667.734 32.4933 667.734 36.128ZM644.61 46.75C648.683 46.75 651.723 45.8413 653.728 44.024C655.733 42.144 656.736 39.512 656.736 36.128C656.736 28.984 652.694 25.412 644.61 25.412H632.766V46.75H644.61ZM713.204 82L698.164 55.868H689.986V82H679.27V16.67H701.83C706.844 16.67 711.074 17.5473 714.52 19.302C718.03 21.0567 720.63 23.4067 722.322 26.352C724.077 29.2973 724.954 32.5873 724.954 36.222C724.954 40.4833 723.701 44.3687 721.194 47.878C718.75 51.3247 714.959 53.6747 709.82 54.928L725.988 82H713.204ZM689.986 47.314H701.83C705.841 47.314 708.849 46.3113 710.854 44.306C712.922 42.3007 713.956 39.606 713.956 36.222C713.956 32.838 712.954 30.206 710.948 28.326C708.943 26.3833 705.904 25.412 701.83 25.412H689.986V47.314ZM750.319 72.694H780.681V82H737.629V73.634L767.897 25.976H737.629V16.67H780.681V25.036L750.319 72.694ZM804.427 25.318V44.494H826.987V53.236H804.427V73.258H829.807V82H793.711V16.576H829.807V25.318H804.427ZM913.13 16.67V82H902.414V37.256L882.486 82H875.06L855.038 37.256V82H844.322V16.67H855.884L878.82 67.9L901.662 16.67H913.13ZM939.246 25.318V44.494H961.806V53.236H939.246V73.258H964.626V82H928.53V16.576H964.626V25.318H939.246ZM1015.14 82L989.857 52.766V82H979.141V16.67H989.857V46.468L1015.24 16.67H1028.68L1000.29 49.382L1029.15 82H1015.14ZM1134.48 16.67V82H1123.77V37.256L1103.84 82H1096.41L1076.39 37.256V82H1065.68V16.67H1077.24L1100.17 67.9L1123.02 16.67H1134.48ZM1160.6 16.67V82H1149.88V16.67H1160.6ZM1209.92 82L1194.88 55.868H1186.7V82H1175.99V16.67H1198.55C1203.56 16.67 1207.79 17.5473 1211.24 19.302C1214.74 21.0567 1217.35 23.4067 1219.04 26.352C1220.79 29.2973 1221.67 32.5873 1221.67 36.222C1221.67 40.4833 1220.42 44.3687 1217.91 47.878C1215.47 51.3247 1211.67 53.6747 1206.54 54.928L1222.7 82H1209.92ZM1186.7 47.314H1198.55C1202.56 47.314 1205.56 46.3113 1207.57 44.306C1209.64 42.3007 1210.67 39.606 1210.67 36.222C1210.67 32.838 1209.67 30.206 1207.66 28.326C1205.66 26.3833 1202.62 25.412 1198.55 25.412H1186.7V47.314ZM1266.49 82.658C1260.41 82.658 1254.8 81.248 1249.67 78.428C1244.59 75.5453 1240.55 71.566 1237.54 66.49C1234.59 61.3513 1233.12 55.586 1233.12 49.194C1233.12 42.802 1234.59 37.068 1237.54 31.992C1240.55 26.916 1244.59 22.968 1249.67 20.148C1254.8 17.2653 1260.41 15.824 1266.49 15.824C1272.63 15.824 1278.24 17.2653 1283.32 20.148C1288.46 22.968 1292.5 26.916 1295.44 31.992C1298.39 37.068 1299.86 42.802 1299.86 49.194C1299.86 55.586 1298.39 61.3513 1295.44 66.49C1292.5 71.566 1288.46 75.5453 1283.32 78.428C1278.24 81.248 1272.63 82.658 1266.49 82.658ZM1266.49 73.352C1270.82 73.352 1274.67 72.3807 1278.05 70.438C1281.44 68.4327 1284.07 65.6127 1285.95 61.978C1287.89 58.2807 1288.86 54.0193 1288.86 49.194C1288.86 44.3687 1287.89 40.1387 1285.95 36.504C1284.07 32.8693 1281.44 30.0807 1278.05 28.138C1274.67 26.1953 1270.82 25.224 1266.49 25.224C1262.17 25.224 1258.31 26.1953 1254.93 28.138C1251.55 30.0807 1248.88 32.8693 1246.94 36.504C1245.06 40.1387 1244.12 44.3687 1244.12 49.194C1244.12 54.0193 1245.06 58.2807 1246.94 61.978C1248.88 65.6127 1251.55 68.4327 1254.93 70.438C1258.31 72.3807 1262.17 73.352 1266.49 73.352ZM1333.25 82.658C1328.86 82.658 1324.91 81.906 1321.4 80.402C1317.9 78.8353 1315.14 76.642 1313.13 73.822C1311.13 71.002 1310.12 67.712 1310.12 63.952H1321.59C1321.84 66.772 1322.94 69.0907 1324.88 70.908C1326.89 72.7253 1329.68 73.634 1333.25 73.634C1336.95 73.634 1339.83 72.7567 1341.9 71.002C1343.96 69.1847 1345 66.866 1345 64.046C1345 61.8527 1344.34 60.0667 1343.02 58.688C1341.77 57.3093 1340.17 56.244 1338.23 55.492C1336.35 54.74 1333.72 53.9253 1330.33 53.048C1326.07 51.92 1322.6 50.792 1319.9 49.664C1317.27 48.4733 1315.01 46.656 1313.13 44.212C1311.25 41.768 1310.31 38.5093 1310.31 34.436C1310.31 30.676 1311.25 27.386 1313.13 24.566C1315.01 21.746 1317.64 19.584 1321.03 18.08C1324.41 16.576 1328.33 15.824 1332.78 15.824C1339.11 15.824 1344.28 17.422 1348.29 20.618C1352.36 23.7513 1354.62 28.0753 1355.06 33.59H1343.21C1343.02 31.2087 1341.9 29.172 1339.83 27.48C1337.76 25.788 1335.03 24.942 1331.65 24.942C1328.58 24.942 1326.07 25.7253 1324.13 27.292C1322.19 28.8587 1321.22 31.1147 1321.22 34.06C1321.22 36.0653 1321.81 37.726 1323 39.042C1324.26 40.2953 1325.82 41.298 1327.7 42.05C1329.58 42.802 1332.15 43.6167 1335.41 44.494C1339.73 45.6847 1343.24 46.8753 1345.94 48.066C1348.7 49.2567 1351.01 51.1053 1352.89 53.612C1354.84 56.056 1355.81 59.346 1355.81 63.482C1355.81 66.8033 1354.9 69.9367 1353.08 72.882C1351.33 75.8273 1348.73 78.2087 1345.28 80.026C1341.9 81.7807 1337.89 82.658 1333.25 82.658Z" fill="var(--color-dark-1)"/>
<path d="M665.384 45.528L663.618 44.5888L665.384 45.528ZM657.864 52.766L658.797 54.5351L658.809 54.5285L658.822 54.5218L657.864 52.766ZM632.766 55.492V53.492H630.766V55.492H632.766ZM632.766 82V84H634.766V82H632.766ZM622.05 82H620.05V84H622.05V82ZM622.05 16.67V14.67H620.05V16.67H622.05ZM657.3 19.302L656.393 21.0843L656.412 21.0941L656.431 21.1035L657.3 19.302ZM665.102 26.258L663.368 27.2542L663.376 27.268L663.384 27.2816L665.102 26.258ZM653.728 44.024L655.071 45.506L655.084 45.4946L655.096 45.4831L653.728 44.024ZM632.766 25.412V23.412H630.766V25.412H632.766ZM632.766 46.75H630.766V48.75H632.766V46.75ZM665.734 36.128C665.734 39.1203 665.032 41.9313 663.618 44.5888L667.15 46.4672C668.87 43.2341 669.734 39.7784 669.734 36.128H665.734ZM663.618 44.5888C662.266 47.1313 660.071 49.2837 656.906 51.0102L658.822 54.5218C662.55 52.4883 665.369 49.8153 667.15 46.4672L663.618 44.5888ZM656.931 50.9969C653.861 52.6157 649.792 53.492 644.61 53.492V57.492C650.206 57.492 654.974 56.5509 658.797 54.5351L656.931 50.9969ZM644.61 53.492H632.766V57.492H644.61V53.492ZM630.766 55.492V82H634.766V55.492H630.766ZM632.766 80H622.05V84H632.766V80ZM624.05 82V16.67H620.05V82H624.05ZM622.05 18.67H644.61V14.67H622.05V18.67ZM644.61 18.67C649.398 18.67 653.298 19.5087 656.393 21.0843L658.207 17.5197C654.409 15.5859 649.848 14.67 644.61 14.67V18.67ZM656.431 21.1035C659.633 22.647 661.905 24.7079 663.368 27.2542L666.836 25.2617C664.915 21.9174 661.986 19.341 658.169 17.5005L656.431 21.1035ZM663.384 27.2816C664.943 29.8985 665.734 32.8311 665.734 36.128H669.734C669.734 32.1555 668.771 28.5081 666.82 25.2344L663.384 27.2816ZM644.61 48.75C648.936 48.75 652.55 47.7905 655.071 45.506L652.385 42.542C650.895 43.8921 648.431 44.75 644.61 44.75V48.75ZM655.096 45.4831C657.595 43.1405 658.736 39.9278 658.736 36.128H654.736C654.736 39.0962 653.872 41.1475 652.36 42.5649L655.096 45.4831ZM658.736 36.128C658.736 32.1792 657.608 28.8711 655.029 26.5923C652.497 24.3552 648.904 23.412 644.61 23.412V27.412C648.4 27.412 650.87 28.2548 652.38 29.5897C653.843 30.8829 654.736 32.9328 654.736 36.128H658.736ZM644.61 23.412H632.766V27.412H644.61V23.412ZM630.766 25.412V46.75H634.766V25.412H630.766ZM632.766 48.75H644.61V44.75H632.766V48.75ZM713.204 82L711.471 82.9976L712.048 84H713.204V82ZM698.164 55.868L699.898 54.8704L699.321 53.868H698.164V55.868ZM689.986 55.868V53.868H687.986V55.868H689.986ZM689.986 82V84H691.986V82H689.986ZM679.27 82H677.27V84H679.27V82ZM679.27 16.67V14.67H677.27V16.67H679.27ZM714.52 19.302L713.613 21.0843L713.619 21.0876L713.626 21.0909L714.52 19.302ZM722.322 26.352L720.588 27.3482L720.596 27.362L720.604 27.3756L722.322 26.352ZM721.194 47.878L719.567 46.7155L719.563 46.7211L721.194 47.878ZM709.82 54.928L709.346 52.985L706.714 53.627L708.103 55.9535L709.82 54.928ZM725.988 82V84H729.512L727.705 80.9745L725.988 82ZM689.986 47.314H687.986V49.314H689.986V47.314ZM710.854 44.306L709.462 42.8702L709.451 42.8809L709.44 42.8918L710.854 44.306ZM710.948 28.326L709.557 29.7625L709.568 29.7739L709.58 29.7851L710.948 28.326ZM689.986 25.412V23.412H687.986V25.412H689.986ZM714.938 81.0024L699.898 54.8704L696.431 56.8656L711.471 82.9976L714.938 81.0024ZM698.164 53.868H689.986V57.868H698.164V53.868ZM687.986 55.868V82H691.986V55.868H687.986ZM689.986 80H679.27V84H689.986V80ZM681.27 82V16.67H677.27V82H681.27ZM679.27 18.67H701.83V14.67H679.27V18.67ZM701.83 18.67C706.619 18.67 710.518 19.5087 713.613 21.0843L715.428 17.5197C711.629 15.5859 707.069 14.67 701.83 14.67V18.67ZM713.626 21.0909C716.839 22.6976 719.121 24.7944 720.588 27.3482L724.057 25.3558C722.14 22.0189 719.22 19.4157 715.415 17.5131L713.626 21.0909ZM720.604 27.3756C722.163 29.9925 722.954 32.9251 722.954 36.222H726.954C726.954 32.2495 725.991 28.6021 724.041 25.3284L720.604 27.3756ZM722.954 36.222C722.954 40.0611 721.834 43.541 719.567 46.7155L722.822 49.0405C725.568 45.1963 726.954 40.9055 726.954 36.222H722.954ZM719.563 46.7211C717.462 49.6834 714.139 51.816 709.346 52.985L710.294 56.871C715.779 55.5333 720.038 52.9659 722.826 49.0349L719.563 46.7211ZM708.103 55.9535L724.271 83.0255L727.705 80.9745L711.537 53.9025L708.103 55.9535ZM725.988 80H713.204V84H725.988V80ZM689.986 49.314H701.83V45.314H689.986V49.314ZM701.83 49.314C706.149 49.314 709.756 48.2329 712.269 45.7202L709.44 42.8918C707.942 44.3898 705.533 45.314 701.83 45.314V49.314ZM712.247 45.7418C714.771 43.294 715.956 40.0447 715.956 36.222H711.956C711.956 39.1673 711.074 41.3073 709.462 42.8702L712.247 45.7418ZM715.956 36.222C715.956 32.4222 714.815 29.2095 712.316 26.8669L709.58 29.7851C711.092 31.2025 711.956 33.2538 711.956 36.222H715.956ZM712.34 26.8895C709.82 24.4486 706.186 23.412 701.83 23.412V27.412C705.621 27.412 708.066 28.318 709.557 29.7625L712.34 26.8895ZM701.83 23.412H689.986V27.412H701.83V23.412ZM687.986 25.412V47.314H691.986V25.412H687.986ZM750.319 72.694L748.632 71.6194L746.673 74.694H750.319V72.694ZM780.681 72.694H782.681V70.694H780.681V72.694ZM780.681 82V84H782.681V82H780.681ZM737.629 82H735.629V84H737.629V82ZM737.629 73.634L735.941 72.5618L735.629 73.0526V73.634H737.629ZM767.897 25.976L769.585 27.0482L771.536 23.976H767.897V25.976ZM737.629 25.976H735.629V27.976H737.629V25.976ZM737.629 16.67V14.67H735.629V16.67H737.629ZM780.681 16.67H782.681V14.67H780.681V16.67ZM780.681 25.036L782.368 26.1106L782.681 25.619V25.036H780.681ZM750.319 74.694H780.681V70.694H750.319V74.694ZM778.681 72.694V82H782.681V72.694H778.681ZM780.681 80H737.629V84H780.681V80ZM739.629 82V73.634H735.629V82H739.629ZM739.317 74.7062L769.585 27.0482L766.209 24.9038L735.941 72.5618L739.317 74.7062ZM767.897 23.976H737.629V27.976H767.897V23.976ZM739.629 25.976V16.67H735.629V25.976H739.629ZM737.629 18.67H780.681V14.67H737.629V18.67ZM778.681 16.67V25.036H782.681V16.67H778.681ZM778.994 23.9614L748.632 71.6194L752.006 73.7686L782.368 26.1106L778.994 23.9614ZM804.427 25.318V23.318H802.427V25.318H804.427ZM804.427 44.494H802.427V46.494H804.427V44.494ZM826.987 44.494H828.987V42.494H826.987V44.494ZM826.987 53.236V55.236H828.987V53.236H826.987ZM804.427 53.236V51.236H802.427V53.236H804.427ZM804.427 73.258H802.427V75.258H804.427V73.258ZM829.807 73.258H831.807V71.258H829.807V73.258ZM829.807 82V84H831.807V82H829.807ZM793.711 82H791.711V84H793.711V82ZM793.711 16.576V14.576H791.711V16.576H793.711ZM829.807 16.576H831.807V14.576H829.807V16.576ZM829.807 25.318V27.318H831.807V25.318H829.807ZM802.427 25.318V44.494H806.427V25.318H802.427ZM804.427 46.494H826.987V42.494H804.427V46.494ZM824.987 44.494V53.236H828.987V44.494H824.987ZM826.987 51.236H804.427V55.236H826.987V51.236ZM802.427 53.236V73.258H806.427V53.236H802.427ZM804.427 75.258H829.807V71.258H804.427V75.258ZM827.807 73.258V82H831.807V73.258H827.807ZM829.807 80H793.711V84H829.807V80ZM795.711 82V16.576H791.711V82H795.711ZM793.711 18.576H829.807V14.576H793.711V18.576ZM827.807 16.576V25.318H831.807V16.576H827.807ZM829.807 23.318H804.427V27.318H829.807V23.318ZM913.13 16.67H915.13V14.67H913.13V16.67ZM913.13 82V84H915.13V82H913.13ZM902.414 82H900.414V84H902.414V82ZM902.414 37.256H904.414L900.587 36.4423L902.414 37.256ZM882.486 82V84H883.784L884.313 82.8137L882.486 82ZM875.06 82L873.234 82.8169L873.764 84H875.06V82ZM855.038 37.256L856.863 36.4391L853.038 37.256H855.038ZM855.038 82V84H857.038V82H855.038ZM844.322 82H842.322V84H844.322V82ZM844.322 16.67V14.67H842.322V16.67H844.322ZM855.884 16.67L857.709 15.8527L857.18 14.67H855.884V16.67ZM878.82 67.9L876.994 68.7172L878.824 72.8029L880.646 68.7145L878.82 67.9ZM901.662 16.67V14.67H900.364L899.835 15.8555L901.662 16.67ZM911.13 16.67V82H915.13V16.67H911.13ZM913.13 80H902.414V84H913.13V80ZM904.414 82V37.256H900.414V82H904.414ZM900.587 36.4423L880.659 81.1863L884.313 82.8137L904.241 38.0697L900.587 36.4423ZM882.486 80H875.06V84H882.486V80ZM876.885 81.1831L856.863 36.4391L853.212 38.0729L873.234 82.8169L876.885 81.1831ZM853.038 37.256V82H857.038V37.256H853.038ZM855.038 80H844.322V84H855.038V80ZM846.322 82V16.67H842.322V82H846.322ZM844.322 18.67H855.884V14.67H844.322V18.67ZM854.058 17.4872L876.994 68.7172L880.645 67.0828L857.709 15.8527L854.058 17.4872ZM880.646 68.7145L903.488 17.4844L899.835 15.8555L876.993 67.0855L880.646 68.7145ZM901.662 18.67H913.13V14.67H901.662V18.67ZM939.246 25.318V23.318H937.246V25.318H939.246ZM939.246 44.494H937.246V46.494H939.246V44.494ZM961.806 44.494H963.806V42.494H961.806V44.494ZM961.806 53.236V55.236H963.806V53.236H961.806ZM939.246 53.236V51.236H937.246V53.236H939.246ZM939.246 73.258H937.246V75.258H939.246V73.258ZM964.626 73.258H966.626V71.258H964.626V73.258ZM964.626 82V84H966.626V82H964.626ZM928.53 82H926.53V84H928.53V82ZM928.53 16.576V14.576H926.53V16.576H928.53ZM964.626 16.576H966.626V14.576H964.626V16.576ZM964.626 25.318V27.318H966.626V25.318H964.626ZM937.246 25.318V44.494H941.246V25.318H937.246ZM939.246 46.494H961.806V42.494H939.246V46.494ZM959.806 44.494V53.236H963.806V44.494H959.806ZM961.806 51.236H939.246V55.236H961.806V51.236ZM937.246 53.236V73.258H941.246V53.236H937.246ZM939.246 75.258H964.626V71.258H939.246V75.258ZM962.626 73.258V82H966.626V73.258H962.626ZM964.626 80H928.53V84H964.626V80ZM930.53 82V16.576H926.53V82H930.53ZM928.53 18.576H964.626V14.576H928.53V18.576ZM962.626 16.576V25.318H966.626V16.576H962.626ZM964.626 23.318H939.246V27.318H964.626V23.318ZM1015.14 82L1013.63 83.3084L1014.23 84H1015.14V82ZM989.857 52.766L991.37 51.4576L987.857 47.3965V52.766H989.857ZM989.857 82V84H991.857V82H989.857ZM979.141 82H977.141V84H979.141V82ZM979.141 16.67V14.67H977.141V16.67H979.141ZM989.857 16.67H991.857V14.67H989.857V16.67ZM989.857 46.468H987.857V51.9006L991.38 47.7648L989.857 46.468ZM1015.24 16.67V14.67H1014.31L1013.71 15.3732L1015.24 16.67ZM1028.68 16.67L1030.19 17.9808L1033.06 14.67H1028.68V16.67ZM1000.29 49.382L998.781 48.0711L997.632 49.3947L998.793 50.7072L1000.29 49.382ZM1029.15 82V84H1033.59L1030.65 80.6748L1029.15 82ZM1016.66 80.6916L991.37 51.4576L988.345 54.0744L1013.63 83.3084L1016.66 80.6916ZM987.857 52.766V82H991.857V52.766H987.857ZM989.857 80H979.141V84H989.857V80ZM981.141 82V16.67H977.141V82H981.141ZM979.141 18.67H989.857V14.67H979.141V18.67ZM987.857 16.67V46.468H991.857V16.67H987.857ZM991.38 47.7648L1016.76 17.9668L1013.71 15.3732L988.335 45.1712L991.38 47.7648ZM1015.24 18.67H1028.68V14.67H1015.24V18.67ZM1027.17 15.3591L998.781 48.0711L1001.8 50.6929L1030.19 17.9808L1027.17 15.3591ZM998.793 50.7072L1027.65 83.3252L1030.65 80.6748L1001.79 48.0568L998.793 50.7072ZM1029.15 80H1015.14V84H1029.15V80ZM1134.48 16.67H1136.48V14.67H1134.48V16.67ZM1134.48 82V84H1136.48V82H1134.48ZM1123.77 82H1121.77V84H1123.77V82ZM1123.77 37.256H1125.77L1121.94 36.4423L1123.77 37.256ZM1103.84 82V84H1105.14L1105.67 82.8137L1103.84 82ZM1096.41 82L1094.59 82.8169L1095.12 84H1096.41V82ZM1076.39 37.256L1078.22 36.4391L1074.39 37.256H1076.39ZM1076.39 82V84H1078.39V82H1076.39ZM1065.68 82H1063.68V84H1065.68V82ZM1065.68 16.67V14.67H1063.68V16.67H1065.68ZM1077.24 16.67L1079.06 15.8527L1078.53 14.67H1077.24V16.67ZM1100.17 67.9L1098.35 68.7172L1100.18 72.8029L1102 68.7145L1100.17 67.9ZM1123.02 16.67V14.67H1121.72L1121.19 15.8555L1123.02 16.67ZM1132.48 16.67V82H1136.48V16.67H1132.48ZM1134.48 80H1123.77V84H1134.48V80ZM1125.77 82V37.256H1121.77V82H1125.77ZM1121.94 36.4423L1102.01 81.1863L1105.67 82.8137L1125.59 38.0697L1121.94 36.4423ZM1103.84 80H1096.41V84H1103.84V80ZM1098.24 81.1831L1078.22 36.4391L1074.57 38.0729L1094.59 82.8169L1098.24 81.1831ZM1074.39 37.256V82H1078.39V37.256H1074.39ZM1076.39 80H1065.68V84H1076.39V80ZM1067.68 82V16.67H1063.68V82H1067.68ZM1065.68 18.67H1077.24V14.67H1065.68V18.67ZM1075.41 17.4872L1098.35 68.7172L1102 67.0828L1079.06 15.8527L1075.41 17.4872ZM1102 68.7145L1124.84 17.4844L1121.19 15.8555L1098.35 67.0855L1102 68.7145ZM1123.02 18.67H1134.48V14.67H1123.02V18.67ZM1160.6 16.67H1162.6V14.67H1160.6V16.67ZM1160.6 82V84H1162.6V82H1160.6ZM1149.88 82H1147.88V84H1149.88V82ZM1149.88 16.67V14.67H1147.88V16.67H1149.88ZM1158.6 16.67V82H1162.6V16.67H1158.6ZM1160.6 80H1149.88V84H1160.6V80ZM1151.88 82V16.67H1147.88V82H1151.88ZM1149.88 18.67H1160.6V14.67H1149.88V18.67ZM1209.92 82L1208.19 82.9976L1208.76 84H1209.92V82ZM1194.88 55.868L1196.61 54.8704L1196.04 53.868H1194.88V55.868ZM1186.7 55.868V53.868H1184.7V55.868H1186.7ZM1186.7 82V84H1188.7V82H1186.7ZM1175.99 82H1173.99V84H1175.99V82ZM1175.99 16.67V14.67H1173.99V16.67H1175.99ZM1211.24 19.302L1210.33 21.0843L1210.33 21.0876L1210.34 21.0909L1211.24 19.302ZM1219.04 26.352L1217.3 27.3482L1217.31 27.362L1217.32 27.3756L1219.04 26.352ZM1217.91 47.878L1216.28 46.7155L1216.28 46.7211L1217.91 47.878ZM1206.54 54.928L1206.06 52.985L1203.43 53.627L1204.82 55.9535L1206.54 54.928ZM1222.7 82V84H1226.23L1224.42 80.9745L1222.7 82ZM1186.7 47.314H1184.7V49.314H1186.7V47.314ZM1207.57 44.306L1206.18 42.8702L1206.17 42.8809L1206.16 42.8918L1207.57 44.306ZM1207.66 28.326L1206.27 29.7625L1206.28 29.7739L1206.3 29.7851L1207.66 28.326ZM1186.7 25.412V23.412H1184.7V25.412H1186.7ZM1211.65 81.0024L1196.61 54.8704L1193.15 56.8656L1208.19 82.9976L1211.65 81.0024ZM1194.88 53.868H1186.7V57.868H1194.88V53.868ZM1184.7 55.868V82H1188.7V55.868H1184.7ZM1186.7 80H1175.99V84H1186.7V80ZM1177.99 82V16.67H1173.99V82H1177.99ZM1175.99 18.67H1198.55V14.67H1175.99V18.67ZM1198.55 18.67C1203.33 18.67 1207.23 19.5087 1210.33 21.0843L1212.14 17.5197C1208.34 15.5859 1203.78 14.67 1198.55 14.67V18.67ZM1210.34 21.0909C1213.55 22.6976 1215.84 24.7944 1217.3 27.3482L1220.77 25.3558C1218.85 22.0189 1215.93 19.4157 1212.13 17.5131L1210.34 21.0909ZM1217.32 27.3756C1218.88 29.9925 1219.67 32.9251 1219.67 36.222H1223.67C1223.67 32.2495 1222.71 28.6021 1220.76 25.3284L1217.32 27.3756ZM1219.67 36.222C1219.67 40.0611 1218.55 43.541 1216.28 46.7155L1219.54 49.0405C1222.28 45.1963 1223.67 40.9055 1223.67 36.222H1219.67ZM1216.28 46.7211C1214.18 49.6834 1210.85 51.816 1206.06 52.985L1207.01 56.871C1212.49 55.5333 1216.75 52.9659 1219.54 49.0349L1216.28 46.7211ZM1204.82 55.9535L1220.99 83.0255L1224.42 80.9745L1208.25 53.9025L1204.82 55.9535ZM1222.7 80H1209.92V84H1222.7V80ZM1186.7 49.314H1198.55V45.314H1186.7V49.314ZM1198.55 49.314C1202.86 49.314 1206.47 48.2329 1208.98 45.7202L1206.16 42.8918C1204.66 44.3898 1202.25 45.314 1198.55 45.314V49.314ZM1208.96 45.7418C1211.49 43.294 1212.67 40.0447 1212.67 36.222H1208.67C1208.67 39.1673 1207.79 41.3073 1206.18 42.8702L1208.96 45.7418ZM1212.67 36.222C1212.67 32.4222 1211.53 29.2095 1209.03 26.8669L1206.3 29.7851C1207.81 31.2025 1208.67 33.2538 1208.67 36.222H1212.67ZM1209.05 26.8895C1206.54 24.4486 1202.9 23.412 1198.55 23.412V27.412C1202.34 27.412 1204.78 28.318 1206.27 29.7625L1209.05 26.8895ZM1198.55 23.412H1186.7V27.412H1198.55V23.412ZM1184.7 25.412V47.314H1188.7V25.412H1184.7ZM1249.67 78.428L1248.68 80.1671L1248.69 80.1743L1248.7 80.1813L1249.67 78.428ZM1237.54 66.49L1235.8 67.4846L1235.81 67.4971L1235.82 67.5096L1237.54 66.49ZM1237.54 31.992L1235.82 30.9724L1235.81 30.9803L1235.81 30.9882L1237.54 31.992ZM1249.67 20.148L1250.64 21.8963L1250.64 21.8923L1249.67 20.148ZM1283.32 20.148L1282.33 21.8871L1282.34 21.8943L1282.36 21.9013L1283.32 20.148ZM1295.44 31.992L1293.71 32.9958L1295.44 31.992ZM1295.44 66.49L1297.17 67.4938L1297.18 67.4846L1295.44 66.49ZM1283.32 78.428L1284.29 80.1763L1284.3 80.1723L1283.32 78.428ZM1278.05 70.438L1279.05 72.1725L1279.06 72.1656L1279.07 72.1586L1278.05 70.438ZM1285.95 61.978L1284.18 61.0477L1284.17 61.0592L1285.95 61.978ZM1285.95 36.504L1284.17 37.4228L1284.18 37.4348L1284.19 37.4468L1285.95 36.504ZM1278.05 28.138L1277.06 29.8725L1278.05 28.138ZM1254.93 28.138L1255.93 29.8725L1254.93 28.138ZM1246.94 36.504L1245.18 35.5612L1245.17 35.5732L1245.16 35.5852L1246.94 36.504ZM1246.94 61.978L1245.16 62.8845L1245.17 62.9027L1245.18 62.9208L1246.94 61.978ZM1254.93 70.438L1253.91 72.1586L1253.92 72.1656L1253.93 72.1725L1254.93 70.438ZM1266.49 80.658C1260.74 80.658 1255.46 79.3267 1250.63 76.6747L1248.7 80.1813C1254.15 83.1693 1260.09 84.658 1266.49 84.658V80.658ZM1250.65 76.6889C1245.88 73.9801 1242.09 70.2502 1239.26 65.4704L1235.82 67.5096C1239 72.8818 1243.3 77.1106 1248.68 80.1671L1250.65 76.6889ZM1239.28 65.4954C1236.52 60.6833 1235.12 55.2656 1235.12 49.194H1231.12C1231.12 55.9064 1232.67 62.0193 1235.8 67.4846L1239.28 65.4954ZM1235.12 49.194C1235.12 43.1221 1236.52 37.74 1239.27 32.9958L1235.81 30.9882C1232.67 36.396 1231.12 42.4818 1231.12 49.194H1235.12ZM1239.26 33.0116C1242.09 28.2355 1245.88 24.5412 1250.64 21.8963L1248.69 18.3997C1243.3 21.3948 1239.01 25.5965 1235.82 30.9724L1239.26 33.0116ZM1250.64 21.8923C1255.47 19.1827 1260.74 17.824 1266.49 17.824V13.824C1260.08 13.824 1254.13 15.3479 1248.69 18.4037L1250.64 21.8923ZM1266.49 17.824C1272.31 17.824 1277.57 19.1844 1282.33 21.8871L1284.31 18.4089C1278.91 15.3462 1272.96 13.824 1266.49 13.824V17.824ZM1282.36 21.9013C1287.17 24.5458 1290.95 28.2345 1293.71 32.9958L1297.17 30.9882C1294.05 25.5975 1289.74 21.3902 1284.28 18.3947L1282.36 21.9013ZM1293.71 32.9958C1296.47 37.74 1297.86 43.1221 1297.86 49.194H1301.86C1301.86 42.4818 1300.31 36.396 1297.17 30.9882L1293.71 32.9958ZM1297.86 49.194C1297.86 55.2656 1296.47 60.6833 1293.71 65.4954L1297.18 67.4846C1300.31 62.0193 1301.86 55.9064 1301.86 49.194H1297.86ZM1293.71 65.4862C1290.95 70.2513 1287.17 73.9755 1282.34 76.6837L1284.3 80.1723C1289.75 77.1152 1294.05 72.8807 1297.17 67.4938L1293.71 65.4862ZM1282.35 76.6797C1277.59 79.3251 1272.31 80.658 1266.49 80.658V84.658C1272.95 84.658 1278.9 83.171 1284.29 80.1763L1282.35 76.6797ZM1266.49 75.352C1271.13 75.352 1275.33 74.3074 1279.05 72.1725L1277.06 68.7035C1274.01 70.4539 1270.51 71.352 1266.49 71.352V75.352ZM1279.07 72.1586C1282.79 69.9543 1285.68 66.8503 1287.73 62.8968L1284.17 61.0592C1282.46 64.375 1280.08 66.9111 1277.03 68.7174L1279.07 72.1586ZM1287.72 62.9083C1289.84 58.8823 1290.86 54.2928 1290.86 49.194H1286.86C1286.86 53.7458 1285.95 57.679 1284.18 61.0477L1287.72 62.9083ZM1290.86 49.194C1290.86 44.0961 1289.84 39.5319 1287.71 35.5612L1284.19 37.4468C1285.95 40.7455 1286.86 44.6412 1286.86 49.194H1290.86ZM1287.73 35.5852C1285.68 31.6267 1282.78 28.547 1279.05 26.4035L1277.06 29.8725C1280.09 31.6143 1282.46 34.1119 1284.17 37.4228L1287.73 35.5852ZM1279.05 26.4035C1275.33 24.2686 1271.13 23.224 1266.49 23.224V27.224C1270.51 27.224 1274.01 28.1221 1277.06 29.8725L1279.05 26.4035ZM1266.49 23.224C1261.86 23.224 1257.65 24.2686 1253.93 26.4035L1255.93 29.8725C1258.97 28.1221 1262.48 27.224 1266.49 27.224V23.224ZM1253.93 26.4035C1250.21 28.5435 1247.29 31.6153 1245.18 35.5612L1248.7 37.4468C1250.48 34.1233 1252.89 31.6178 1255.93 29.8725L1253.93 26.4035ZM1245.16 35.5852C1243.11 39.5506 1242.12 44.1061 1242.12 49.194H1246.12C1246.12 44.6313 1247.01 40.7267 1248.72 37.4228L1245.16 35.5852ZM1242.12 49.194C1242.12 54.2829 1243.11 58.8638 1245.16 62.8845L1248.72 61.0715C1247.01 57.6976 1246.12 53.7558 1246.12 49.194H1242.12ZM1245.18 62.9208C1247.28 66.8618 1250.2 69.9578 1253.91 72.1586L1255.95 68.7174C1252.9 66.9075 1250.48 64.3636 1248.7 61.0352L1245.18 62.9208ZM1253.93 72.1725C1257.65 74.3074 1261.86 75.352 1266.49 75.352V71.352C1262.48 71.352 1258.97 70.4539 1255.93 68.7035L1253.93 72.1725ZM1321.4 80.402L1320.59 82.2283L1320.6 82.2344L1320.62 82.2403L1321.4 80.402ZM1313.13 73.822L1314.76 72.6629L1313.13 73.822ZM1310.12 63.952V61.952H1308.12V63.952H1310.12ZM1321.59 63.952L1323.59 63.7749L1323.42 61.952H1321.59V63.952ZM1324.88 70.908L1323.52 72.3685L1323.53 72.3793L1323.54 72.39L1324.88 70.908ZM1341.9 71.002L1343.19 72.527L1343.2 72.5158L1343.22 72.5043L1341.9 71.002ZM1343.02 58.688L1341.54 60.0333L1341.56 60.0513L1341.58 60.0689L1343.02 58.688ZM1338.23 55.492L1337.49 57.349L1337.5 57.3531L1337.51 57.3571L1338.23 55.492ZM1330.33 53.048L1329.82 54.9814L1329.83 54.984L1330.33 53.048ZM1319.9 49.664L1319.08 51.4862L1319.1 51.4979L1319.13 51.5089L1319.9 49.664ZM1313.13 24.566L1314.8 25.6754L1313.13 24.566ZM1321.03 18.08L1321.84 19.9076L1321.03 18.08ZM1348.29 20.618L1347.04 22.1821L1347.06 22.1928L1347.07 22.2032L1348.29 20.618ZM1355.06 33.59V35.59H1357.22L1357.05 33.4314L1355.06 33.59ZM1343.21 33.59L1341.22 33.7474L1341.36 35.59H1343.21V33.59ZM1324.13 27.292L1325.39 28.8488L1324.13 27.292ZM1323 39.042L1321.52 40.3838L1321.55 40.4209L1321.59 40.4562L1323 39.042ZM1327.7 42.05L1328.45 40.193L1327.7 42.05ZM1335.41 44.494L1335.94 42.5657L1335.93 42.5628L1335.41 44.494ZM1345.94 48.066L1345.13 49.8954L1345.14 49.8988L1345.15 49.9021L1345.94 48.066ZM1352.89 53.612L1351.29 54.812L1351.31 54.8345L1351.33 54.8565L1352.89 53.612ZM1353.08 72.882L1351.38 71.8318L1351.37 71.845L1351.36 71.8584L1353.08 72.882ZM1345.28 80.026L1346.2 81.8016L1346.21 81.7951L1345.28 80.026ZM1333.25 80.658C1329.09 80.658 1325.42 79.9463 1322.19 78.5637L1320.62 82.2403C1324.41 83.8657 1328.63 84.658 1333.25 84.658V80.658ZM1322.22 78.5757C1319 77.1382 1316.54 75.1604 1314.76 72.6629L1311.5 74.981C1313.74 78.1236 1316.79 80.5325 1320.59 82.2283L1322.22 78.5757ZM1314.76 72.6629C1313.02 70.2111 1312.12 67.3345 1312.12 63.952H1308.12C1308.12 68.0895 1309.24 71.7929 1311.5 74.981L1314.76 72.6629ZM1310.12 65.952H1321.59V61.952H1310.12V65.952ZM1319.6 64.1291C1319.89 67.405 1321.19 70.1921 1323.52 72.3685L1326.25 69.4475C1324.69 67.9892 1323.8 66.139 1323.59 63.7749L1319.6 64.1291ZM1323.54 72.39C1326.02 74.6356 1329.34 75.634 1333.25 75.634V71.634C1330.01 71.634 1327.76 70.8151 1326.23 69.426L1323.54 72.39ZM1333.25 75.634C1337.25 75.634 1340.65 74.6839 1343.19 72.527L1340.6 69.477C1339.01 70.8294 1336.64 71.634 1333.25 71.634V75.634ZM1343.22 72.5043C1345.73 70.2968 1347 67.4252 1347 64.046H1343C1343 66.3068 1342.2 68.0725 1340.58 69.4997L1343.22 72.5043ZM1347 64.046C1347 61.4218 1346.2 59.1141 1344.47 57.307L1341.58 60.0689C1342.49 61.0193 1343 62.2835 1343 64.046H1347ZM1344.5 57.3427C1343.02 55.7083 1341.15 54.4776 1338.95 53.6269L1337.51 57.3571C1339.2 58.0104 1340.52 58.9103 1341.54 60.0333L1344.5 57.3427ZM1338.97 53.635C1336.98 52.8371 1334.25 51.9977 1330.84 51.112L1329.83 54.984C1333.18 55.853 1335.72 56.6429 1337.49 57.349L1338.97 53.635ZM1330.85 51.1146C1326.63 49.9995 1323.25 48.8987 1320.67 47.8191L1319.13 51.5089C1321.94 52.6853 1325.51 53.8404 1329.82 54.9814L1330.85 51.1146ZM1320.73 47.8418C1318.41 46.7956 1316.41 45.1943 1314.72 42.9926L1311.55 45.4314C1313.61 48.1177 1316.13 50.1511 1319.08 51.4862L1320.73 47.8418ZM1314.72 42.9926C1313.18 40.9959 1312.31 38.2098 1312.31 34.436H1308.31C1308.31 38.8089 1309.32 42.5401 1311.55 45.4314L1314.72 42.9926ZM1312.31 34.436C1312.31 31.026 1313.16 28.1314 1314.8 25.6754L1311.47 23.4566C1309.35 26.6406 1308.31 30.326 1308.31 34.436H1312.31ZM1314.8 25.6754C1316.45 23.1997 1318.77 21.2725 1321.84 19.9076L1320.22 16.2524C1316.52 17.8955 1313.58 20.2923 1311.47 23.4566L1314.8 25.6754ZM1321.84 19.9076C1324.92 18.5378 1328.55 17.824 1332.78 17.824V13.824C1328.11 13.824 1323.9 14.6142 1320.22 16.2524L1321.84 19.9076ZM1332.78 17.824C1338.76 17.824 1343.46 19.3294 1347.04 22.1821L1349.54 19.0539C1345.09 15.5146 1339.45 13.824 1332.78 13.824V17.824ZM1347.07 22.2032C1350.66 24.9633 1352.67 28.7491 1353.06 33.7486L1357.05 33.4314C1356.57 27.4016 1354.07 22.5394 1349.51 19.0327L1347.07 22.2032ZM1355.06 31.59H1343.21V35.59H1355.06V31.59ZM1345.21 33.4326C1344.97 30.441 1343.53 27.9241 1341.1 25.9321L1338.56 29.0279C1340.26 30.4199 1341.08 31.9763 1341.22 33.7474L1345.21 33.4326ZM1341.1 25.9321C1338.58 23.877 1335.37 22.942 1331.65 22.942V26.942C1334.7 26.942 1336.94 27.699 1338.56 29.0279L1341.1 25.9321ZM1331.65 22.942C1328.23 22.942 1325.25 23.8204 1322.88 25.7352L1325.39 28.8488C1326.9 27.6303 1328.93 26.942 1331.65 26.942V22.942ZM1322.88 25.7352C1320.37 27.7518 1319.22 30.6314 1319.22 34.06H1323.22C1323.22 31.5979 1324 29.9656 1325.39 28.8488L1322.88 25.7352ZM1319.22 34.06C1319.22 36.492 1319.95 38.6518 1321.52 40.3838L1324.49 37.7002C1323.67 36.8002 1323.22 35.6386 1323.22 34.06H1319.22ZM1321.59 40.4562C1323.06 41.9264 1324.86 43.0686 1326.96 43.907L1328.45 40.193C1326.78 39.5274 1325.45 38.6642 1324.42 37.6278L1321.59 40.4562ZM1326.96 43.907C1328.94 44.7008 1331.6 45.539 1334.89 46.4252L1335.93 42.5628C1332.71 41.6943 1330.22 40.9032 1328.45 40.193L1326.96 43.907ZM1334.88 46.4222C1339.15 47.5988 1342.56 48.7592 1345.13 49.8954L1346.75 46.2366C1343.93 44.9914 1340.32 43.7706 1335.94 42.5658L1334.88 46.4222ZM1345.15 49.9021C1347.57 50.9486 1349.61 52.5715 1351.29 54.812L1354.49 52.412C1352.42 49.6392 1349.82 47.5648 1346.73 46.2299L1345.15 49.9021ZM1351.33 54.8565C1352.91 56.8465 1353.81 59.6508 1353.81 63.482H1357.81C1357.81 59.0412 1356.76 55.2655 1354.46 52.3675L1351.33 54.8565ZM1353.81 63.482C1353.81 66.4164 1353.01 69.1882 1351.38 71.8318L1354.78 73.9322C1356.79 70.6851 1357.81 67.1903 1357.81 63.482H1353.81ZM1351.36 71.8584C1349.82 74.4463 1347.51 76.5871 1344.35 78.2569L1346.21 81.7951C1349.94 79.8302 1352.83 77.2083 1354.8 73.9056L1351.36 71.8584ZM1344.36 78.2505C1341.32 79.829 1337.63 80.658 1333.25 80.658V84.658C1338.14 84.658 1342.48 83.7323 1346.2 81.8015L1344.36 78.2505Z" fill="#E0ECF8" mask="url(#path-1-outside-1_2876_68)"/>
<path d="M1017.85 202.45C1021.25 199.75 1022.8 198.5 1022.5 198.7C1032.3 190.6 1040 183.95 1045.6 178.75C1051.3 173.55 1056.1 168.1 1060 162.4C1063.9 156.7 1065.85 151.15 1065.85 145.75C1065.85 141.65 1064.9 138.45 1063 136.15C1061.1 133.85 1058.25 132.7 1054.45 132.7C1050.65 132.7 1047.65 134.15 1045.45 137.05C1043.35 139.85 1042.3 143.85 1042.3 149.05H1017.55C1017.75 140.55 1019.55 133.45 1022.95 127.75C1026.45 122.05 1031 117.85 1036.6 115.15C1042.3 112.45 1048.6 111.1 1055.5 111.1C1067.4 111.1 1076.35 114.15 1082.35 120.25C1088.45 126.35 1091.5 134.3 1091.5 144.1C1091.5 154.8 1087.85 164.75 1080.55 173.95C1073.25 183.05 1063.95 191.95 1052.65 200.65H1093.15V221.5H1017.85V202.45ZM1103.99 166.75C1103.99 149.55 1107.29 136 1113.89 126.1C1120.59 116.2 1131.34 111.25 1146.14 111.25C1160.94 111.25 1171.64 116.2 1178.24 126.1C1184.94 136 1188.29 149.55 1188.29 166.75C1188.29 184.15 1184.94 197.8 1178.24 207.7C1171.64 217.6 1160.94 222.55 1146.14 222.55C1131.34 222.55 1120.59 217.6 1113.89 207.7C1107.29 197.8 1103.99 184.15 1103.99 166.75ZM1163.09 166.75C1163.09 156.65 1161.99 148.9 1159.79 143.5C1157.59 138 1153.04 135.25 1146.14 135.25C1139.24 135.25 1134.69 138 1132.49 143.5C1130.29 148.9 1129.19 156.65 1129.19 166.75C1129.19 173.55 1129.59 179.2 1130.39 183.7C1131.19 188.1 1132.79 191.7 1135.19 194.5C1137.69 197.2 1141.34 198.55 1146.14 198.55C1150.94 198.55 1154.54 197.2 1156.94 194.5C1159.44 191.7 1161.09 188.1 1161.89 183.7C1162.69 179.2 1163.09 173.55 1163.09 166.75ZM1200.49 202.45C1203.89 199.75 1205.44 198.5 1205.14 198.7C1214.94 190.6 1222.64 183.95 1228.24 178.75C1233.94 173.55 1238.74 168.1 1242.64 162.4C1246.54 156.7 1248.49 151.15 1248.49 145.75C1248.49 141.65 1247.54 138.45 1245.64 136.15C1243.74 133.85 1240.89 132.7 1237.09 132.7C1233.29 132.7 1230.29 134.15 1228.09 137.05C1225.99 139.85 1224.94 143.85 1224.94 149.05H1200.19C1200.39 140.55 1202.19 133.45 1205.59 127.75C1209.09 122.05 1213.64 117.85 1219.24 115.15C1224.94 112.45 1231.24 111.1 1238.14 111.1C1250.04 111.1 1258.99 114.15 1264.99 120.25C1271.09 126.35 1274.14 134.3 1274.14 144.1C1274.14 154.8 1270.49 164.75 1263.19 173.95C1255.89 183.05 1246.59 191.95 1235.29 200.65H1275.79V221.5H1200.49V202.45ZM1287.54 144.4C1287.94 133.7 1291.44 125.45 1298.04 119.65C1304.64 113.85 1313.59 110.95 1324.89 110.95C1332.39 110.95 1338.79 112.25 1344.09 114.85C1349.49 117.45 1353.54 121 1356.24 125.5C1359.04 130 1360.44 135.05 1360.44 140.65C1360.44 147.25 1358.79 152.65 1355.49 156.85C1352.19 160.95 1348.34 163.75 1343.94 165.25V165.85C1349.64 167.75 1354.14 170.9 1357.44 175.3C1360.74 179.7 1362.39 185.35 1362.39 192.25C1362.39 198.45 1360.94 203.95 1358.04 208.75C1355.24 213.45 1351.09 217.15 1345.59 219.85C1340.19 222.55 1333.74 223.9 1326.24 223.9C1314.24 223.9 1304.64 220.95 1297.44 215.05C1290.34 209.15 1286.59 200.25 1286.19 188.35H1311.09C1311.19 192.75 1312.44 196.25 1314.84 198.85C1317.24 201.35 1320.74 202.6 1325.34 202.6C1329.24 202.6 1332.24 201.5 1334.34 199.3C1336.54 197 1337.64 194 1337.64 190.3C1337.64 185.5 1336.09 182.05 1332.99 179.95C1329.99 177.75 1325.14 176.65 1318.44 176.65H1313.64V155.8H1318.44C1323.54 155.8 1327.64 154.95 1330.74 153.25C1333.94 151.45 1335.54 148.3 1335.54 143.8C1335.54 140.2 1334.54 137.4 1332.54 135.4C1330.54 133.4 1327.79 132.4 1324.29 132.4C1320.49 132.4 1317.64 133.55 1315.74 135.85C1313.94 138.15 1312.89 141 1312.59 144.4H1287.54Z" fill="var(--color-dark-1)"/>
<path d="M643.299 281L631.904 268.174V281H627.081V241.78H631.904V264.835L643.087 251.956H649.818L636.144 266.425L649.871 281H643.299ZM666.494 281.477C663.774 281.477 661.3 280.859 659.074 279.622C656.884 278.385 655.152 276.636 653.88 274.375C652.644 272.078 652.025 269.428 652.025 266.425C652.025 263.457 652.661 260.842 653.933 258.581C655.241 256.284 657.007 254.535 659.233 253.334C661.459 252.097 663.95 251.479 666.706 251.479C669.462 251.479 671.953 252.097 674.179 253.334C676.405 254.535 678.154 256.267 679.426 258.528C680.734 260.789 681.387 263.422 681.387 266.425C681.387 269.428 680.716 272.078 679.373 274.375C678.066 276.636 676.282 278.385 674.02 279.622C671.759 280.859 669.25 281.477 666.494 281.477ZM666.494 277.237C668.226 277.237 669.851 276.831 671.37 276.018C672.89 275.205 674.109 273.986 675.027 272.361C675.981 270.736 676.458 268.757 676.458 266.425C676.458 264.093 675.999 262.114 675.08 260.489C674.162 258.864 672.96 257.662 671.476 256.885C669.992 256.072 668.385 255.666 666.653 255.666C664.887 255.666 663.261 256.072 661.777 256.885C660.329 257.662 659.163 258.864 658.279 260.489C657.396 262.114 656.954 264.093 656.954 266.425C656.954 268.792 657.378 270.789 658.226 272.414C659.11 274.039 660.276 275.258 661.724 276.071C663.173 276.848 664.763 277.237 666.494 277.237ZM701.35 251.426C704.883 251.426 707.745 252.504 709.936 254.659C712.126 256.779 713.222 259.853 713.222 263.881V281H708.452V264.57C708.452 261.673 707.727 259.464 706.279 257.945C704.83 256.39 702.851 255.613 700.343 255.613C697.799 255.613 695.767 256.408 694.248 257.998C692.764 259.588 692.022 261.902 692.022 264.941V281H687.199V251.956H692.022V256.09C692.976 254.606 694.265 253.458 695.891 252.645C697.551 251.832 699.371 251.426 701.35 251.426ZM726.453 255.931V273.05C726.453 274.463 726.753 275.47 727.354 276.071C727.955 276.636 728.997 276.919 730.481 276.919H734.032V281H729.686C727.001 281 724.987 280.382 723.644 279.145C722.301 277.908 721.63 275.877 721.63 273.05V255.931H717.867V251.956H721.63V244.642H726.453V251.956H734.032V255.931H726.453ZM737.544 266.372C737.544 263.404 738.144 260.807 739.346 258.581C740.547 256.32 742.19 254.571 744.275 253.334C746.395 252.097 748.744 251.479 751.324 251.479C753.868 251.479 756.076 252.027 757.949 253.122C759.821 254.217 761.217 255.595 762.136 257.256V251.956H767.012V281H762.136V275.594C761.182 277.29 759.751 278.703 757.843 279.834C755.97 280.929 753.779 281.477 751.271 281.477C748.691 281.477 746.359 280.841 744.275 279.569C742.19 278.297 740.547 276.513 739.346 274.216C738.144 271.919 737.544 269.305 737.544 266.372ZM762.136 266.425C762.136 264.234 761.694 262.326 760.811 260.701C759.927 259.076 758.726 257.839 757.207 256.991C755.723 256.108 754.08 255.666 752.278 255.666C750.476 255.666 748.833 256.09 747.349 256.938C745.865 257.786 744.681 259.023 743.798 260.648C742.914 262.273 742.473 264.181 742.473 266.372C742.473 268.598 742.914 270.541 743.798 272.202C744.681 273.827 745.865 275.082 747.349 275.965C748.833 276.813 750.476 277.237 752.278 277.237C754.08 277.237 755.723 276.813 757.207 275.965C758.726 275.082 759.927 273.827 760.811 272.202C761.694 270.541 762.136 268.616 762.136 266.425ZM790.85 281L779.455 268.174V281H774.632V241.78H779.455V264.835L790.638 251.956H797.369L783.695 266.425L797.422 281H790.85ZM807.262 255.931V273.05C807.262 274.463 807.562 275.47 808.163 276.071C808.763 276.636 809.806 276.919 811.29 276.919H814.841V281H810.495C807.809 281 805.795 280.382 804.453 279.145C803.11 277.908 802.439 275.877 802.439 273.05V255.931H798.676V251.956H802.439V244.642H807.262V251.956H814.841V255.931H807.262ZM846.654 247.027C850.576 247.027 853.986 247.769 856.883 249.253C859.781 250.737 862.007 252.822 863.561 255.507C865.116 258.157 865.893 261.231 865.893 264.729C865.893 267.52 865.434 270.206 864.515 272.785C863.597 275.329 862.254 277.396 860.487 278.986C858.756 280.576 856.724 281.371 854.392 281.371C852.626 281.371 851.265 280.929 850.311 280.046C849.357 279.163 848.81 277.961 848.668 276.442C847.573 277.961 846.177 279.163 844.481 280.046C842.821 280.929 841.054 281.371 839.181 281.371C836.496 281.371 834.376 280.558 832.821 278.933C831.302 277.272 830.542 275.046 830.542 272.255C830.542 269.605 831.09 267.132 832.185 264.835C833.316 262.538 834.871 260.701 836.849 259.323C838.828 257.91 841.072 257.203 843.58 257.203C846.937 257.203 849.198 258.475 850.364 261.019L850.947 257.733H855.134L852.484 273.05C852.378 273.721 852.325 274.34 852.325 274.905C852.325 277.025 853.262 278.085 855.134 278.085C856.548 278.085 857.767 277.414 858.791 276.071C859.851 274.728 860.646 273.05 861.176 271.036C861.706 268.987 861.971 266.973 861.971 264.994C861.971 260.365 860.576 256.779 857.784 254.235C855.028 251.691 851.124 250.419 846.071 250.419C841.867 250.419 838.068 251.444 834.676 253.493C831.32 255.507 828.687 258.281 826.779 261.814C824.871 265.347 823.917 269.252 823.917 273.527C823.882 278.191 825.278 281.777 828.104 284.286C830.931 286.83 834.853 288.102 839.87 288.102C843.192 288.102 846.124 287.501 848.668 286.3L849.304 289.586C846.16 290.893 842.697 291.547 838.916 291.547C835.136 291.547 831.797 290.823 828.899 289.374C826.037 287.961 823.811 285.911 822.221 283.226C820.667 280.576 819.889 277.484 819.889 273.951C819.889 268.969 821.038 264.429 823.334 260.33C825.631 256.196 828.811 252.945 832.874 250.578C836.973 248.211 841.566 247.027 846.654 247.027ZM840.612 277.608C842.202 277.608 843.669 277.149 845.011 276.23C846.354 275.276 847.414 274.004 848.191 272.414C848.969 270.789 849.357 269.022 849.357 267.114C849.357 265.277 848.845 263.793 847.82 262.662C846.831 261.496 845.418 260.913 843.58 260.913C841.884 260.913 840.383 261.425 839.075 262.45C837.803 263.439 836.814 264.764 836.107 266.425C835.401 268.05 835.047 269.746 835.047 271.513C835.047 273.386 835.524 274.87 836.478 275.965C837.432 277.06 838.81 277.608 840.612 277.608ZM885.116 255.931H879.021V281H874.198V255.931H870.435V251.956H874.198V249.889C874.198 246.638 875.028 244.271 876.689 242.787C878.385 241.268 881.088 240.508 884.798 240.508V244.536C882.678 244.536 881.176 244.96 880.293 245.808C879.445 246.621 879.021 247.981 879.021 249.889V251.956H885.116V255.931ZM915.967 251.956V281H911.144V276.707C910.226 278.191 908.936 279.357 907.275 280.205C905.65 281.018 903.848 281.424 901.869 281.424C899.608 281.424 897.576 280.965 895.774 280.046C893.972 279.092 892.541 277.679 891.481 275.806C890.457 273.933 889.944 271.654 889.944 268.969V251.956H894.714V268.333C894.714 271.195 895.439 273.403 896.887 274.958C898.336 276.477 900.315 277.237 902.823 277.237C905.403 277.237 907.434 276.442 908.918 274.852C910.402 273.262 911.144 270.948 911.144 267.909V251.956H915.967ZM929.464 255.931V273.05C929.464 274.463 929.764 275.47 930.365 276.071C930.965 276.636 932.008 276.919 933.492 276.919H937.043V281H932.697C930.011 281 927.997 280.382 926.655 279.145C925.312 277.908 924.641 275.877 924.641 273.05V255.931H920.878V251.956H924.641V244.642H929.464V251.956H937.043V255.931H929.464ZM968.114 251.956V281H963.291V276.707C962.373 278.191 961.083 279.357 959.422 280.205C957.797 281.018 955.995 281.424 954.016 281.424C951.755 281.424 949.723 280.965 947.921 280.046C946.119 279.092 944.688 277.679 943.628 275.806C942.604 273.933 942.091 271.654 942.091 268.969V251.956H946.861V268.333C946.861 271.195 947.586 273.403 949.034 274.958C950.483 276.477 952.462 277.237 954.97 277.237C957.55 277.237 959.581 276.442 961.065 274.852C962.549 273.262 963.291 270.948 963.291 267.909V251.956H968.114ZM980.551 256.673C981.399 255.012 982.6 253.723 984.155 252.804C985.745 251.885 987.671 251.426 989.932 251.426V256.408H988.66C983.254 256.408 980.551 259.341 980.551 265.206V281H975.728V251.956H980.551V256.673ZM1021.47 265.365C1021.47 266.284 1021.42 267.255 1021.31 268.28H998.096C998.273 271.142 999.245 273.386 1001.01 275.011C1002.81 276.601 1004.99 277.396 1007.53 277.396C1009.61 277.396 1011.35 276.919 1012.72 275.965C1014.14 274.976 1015.13 273.668 1015.69 272.043H1020.89C1020.11 274.834 1018.55 277.113 1016.22 278.88C1013.89 280.611 1010.99 281.477 1007.53 281.477C1004.77 281.477 1002.3 280.859 1000.11 279.622C997.955 278.385 996.259 276.636 995.022 274.375C993.786 272.078 993.167 269.428 993.167 266.425C993.167 263.422 993.768 260.789 994.969 258.528C996.171 256.267 997.849 254.535 1000 253.334C1002.19 252.097 1004.7 251.479 1007.53 251.479C1010.29 251.479 1012.72 252.08 1014.84 253.281C1016.96 254.482 1018.59 256.143 1019.72 258.263C1020.89 260.348 1021.47 262.715 1021.47 265.365ZM1016.49 264.358C1016.49 262.521 1016.08 260.948 1015.27 259.641C1014.46 258.298 1013.34 257.291 1011.93 256.62C1010.55 255.913 1009.01 255.56 1007.32 255.56C1004.88 255.56 1002.8 256.337 1001.06 257.892C999.368 259.447 998.397 261.602 998.149 264.358H1016.49ZM1066 251.956L1056.93 281H1051.95L1044.95 257.945L1037.96 281H1032.98L1023.86 251.956H1028.79L1035.47 276.336L1042.68 251.956H1047.6L1054.65 276.389L1061.23 251.956H1066ZM1096.75 265.365C1096.75 266.284 1096.7 267.255 1096.59 268.28H1073.38C1073.56 271.142 1074.53 273.386 1076.29 275.011C1078.1 276.601 1080.27 277.396 1082.81 277.396C1084.9 277.396 1086.63 276.919 1088.01 275.965C1089.42 274.976 1090.41 273.668 1090.98 272.043H1096.17C1095.39 274.834 1093.84 277.113 1091.51 278.88C1089.17 280.611 1086.28 281.477 1082.81 281.477C1080.06 281.477 1077.58 280.859 1075.39 279.622C1073.24 278.385 1071.54 276.636 1070.31 274.375C1069.07 272.078 1068.45 269.428 1068.45 266.425C1068.45 263.422 1069.05 260.789 1070.25 258.528C1071.45 256.267 1073.13 254.535 1075.29 253.334C1077.48 252.097 1079.99 251.479 1082.81 251.479C1085.57 251.479 1088.01 252.08 1090.13 253.281C1092.25 254.482 1093.87 256.143 1095 258.263C1096.17 260.348 1096.75 262.715 1096.75 265.365ZM1091.77 264.358C1091.77 262.521 1091.36 260.948 1090.55 259.641C1089.74 258.298 1088.63 257.291 1087.21 256.62C1085.83 255.913 1084.3 255.56 1082.6 255.56C1080.16 255.56 1078.08 256.337 1076.35 257.892C1074.65 259.447 1073.68 261.602 1073.43 264.358H1091.77ZM1107.41 257.362C1108.4 255.631 1109.85 254.217 1111.76 253.122C1113.67 252.027 1115.84 251.479 1118.28 251.479C1120.89 251.479 1123.24 252.097 1125.33 253.334C1127.41 254.571 1129.05 256.32 1130.25 258.581C1131.46 260.807 1132.06 263.404 1132.06 266.372C1132.06 269.305 1131.46 271.919 1130.25 274.216C1129.05 276.513 1127.39 278.297 1125.27 279.569C1123.19 280.841 1120.86 281.477 1118.28 281.477C1115.77 281.477 1113.56 280.929 1111.65 279.834C1109.78 278.739 1108.37 277.343 1107.41 275.647V281H1102.59V241.78H1107.41V257.362ZM1127.13 266.372C1127.13 264.181 1126.69 262.273 1125.8 260.648C1124.92 259.023 1123.72 257.786 1122.2 256.938C1120.71 256.09 1119.07 255.666 1117.27 255.666C1115.5 255.666 1113.86 256.108 1112.34 256.991C1110.86 257.839 1109.65 259.093 1108.74 260.754C1107.85 262.379 1107.41 264.27 1107.41 266.425C1107.41 268.616 1107.85 270.541 1108.74 272.202C1109.65 273.827 1110.86 275.082 1112.34 275.965C1113.86 276.813 1115.5 277.237 1117.27 277.237C1119.07 277.237 1120.71 276.813 1122.2 275.965C1123.72 275.082 1124.92 273.827 1125.8 272.202C1126.69 270.541 1127.13 268.598 1127.13 266.372ZM1148.16 281.477C1145.93 281.477 1143.93 281.106 1142.17 280.364C1140.4 279.587 1139.01 278.527 1137.98 277.184C1136.96 275.806 1136.39 274.234 1136.28 272.467H1141.27C1141.41 273.916 1142.08 275.099 1143.28 276.018C1144.52 276.937 1146.13 277.396 1148.1 277.396C1149.94 277.396 1151.39 276.99 1152.45 276.177C1153.51 275.364 1154.04 274.34 1154.04 273.103C1154.04 271.831 1153.47 270.895 1152.34 270.294C1151.21 269.658 1149.46 269.04 1147.1 268.439C1144.94 267.874 1143.17 267.308 1141.8 266.743C1140.45 266.142 1139.29 265.277 1138.3 264.146C1137.34 262.98 1136.87 261.461 1136.87 259.588C1136.87 258.104 1137.31 256.744 1138.19 255.507C1139.08 254.27 1140.33 253.299 1141.96 252.592C1143.58 251.85 1145.44 251.479 1147.52 251.479C1150.74 251.479 1153.33 252.292 1155.31 253.917C1157.29 255.542 1158.35 257.768 1158.49 260.595H1153.67C1153.56 259.076 1152.94 257.857 1151.81 256.938C1150.72 256.019 1149.23 255.56 1147.36 255.56C1145.63 255.56 1144.25 255.931 1143.23 256.673C1142.2 257.415 1141.69 258.387 1141.69 259.588C1141.69 260.542 1141.99 261.337 1142.59 261.973C1143.23 262.574 1144.01 263.068 1144.92 263.457C1145.88 263.81 1147.19 264.217 1148.85 264.676C1150.93 265.241 1152.63 265.807 1153.93 266.372C1155.24 266.902 1156.35 267.715 1157.27 268.81C1158.23 269.905 1158.72 271.336 1158.76 273.103C1158.76 274.693 1158.32 276.124 1157.43 277.396C1156.55 278.668 1155.29 279.675 1153.67 280.417C1152.08 281.124 1150.24 281.477 1148.16 281.477ZM1170.92 255.931V273.05C1170.92 274.463 1171.22 275.47 1171.82 276.071C1172.42 276.636 1173.46 276.919 1174.95 276.919H1178.5V281H1174.15C1171.47 281 1169.45 280.382 1168.11 279.145C1166.77 277.908 1166.1 275.877 1166.1 273.05V255.931H1162.33V251.956H1166.1V244.642H1170.92V251.956H1178.5V255.931H1170.92ZM1209.57 251.956V281H1204.75V276.707C1203.83 278.191 1202.54 279.357 1200.88 280.205C1199.25 281.018 1197.45 281.424 1195.47 281.424C1193.21 281.424 1191.18 280.965 1189.38 280.046C1187.57 279.092 1186.14 277.679 1185.08 275.806C1184.06 273.933 1183.55 271.654 1183.55 268.969V251.956H1188.32V268.333C1188.32 271.195 1189.04 273.403 1190.49 274.958C1191.94 276.477 1193.92 277.237 1196.42 277.237C1199 277.237 1201.04 276.442 1202.52 274.852C1204 273.262 1204.75 270.948 1204.75 267.909V251.956H1209.57ZM1215.38 266.372C1215.38 263.404 1215.98 260.807 1217.18 258.581C1218.38 256.32 1220.03 254.571 1222.11 253.334C1224.23 252.097 1226.6 251.479 1229.21 251.479C1231.47 251.479 1233.58 252.009 1235.52 253.069C1237.46 254.094 1238.95 255.454 1239.97 257.15V241.78H1244.85V281H1239.97V275.541C1239.02 277.272 1237.6 278.703 1235.73 279.834C1233.86 280.929 1231.67 281.477 1229.16 281.477C1226.58 281.477 1224.23 280.841 1222.11 279.569C1220.03 278.297 1218.38 276.513 1217.18 274.216C1215.98 271.919 1215.38 269.305 1215.38 266.372ZM1239.97 266.425C1239.97 264.234 1239.53 262.326 1238.65 260.701C1237.76 259.076 1236.56 257.839 1235.04 256.991C1233.56 256.108 1231.92 255.666 1230.11 255.666C1228.31 255.666 1226.67 256.09 1225.19 256.938C1223.7 257.786 1222.52 259.023 1221.63 260.648C1220.75 262.273 1220.31 264.181 1220.31 266.372C1220.31 268.598 1220.75 270.541 1221.63 272.202C1222.52 273.827 1223.7 275.082 1225.19 275.965C1226.67 276.813 1228.31 277.237 1230.11 277.237C1231.92 277.237 1233.56 276.813 1235.04 275.965C1236.56 275.082 1237.76 273.827 1238.65 272.202C1239.53 270.541 1239.97 268.616 1239.97 266.425ZM1254.96 247.239C1254.04 247.239 1253.26 246.921 1252.63 246.285C1251.99 245.649 1251.67 244.872 1251.67 243.953C1251.67 243.034 1251.99 242.257 1252.63 241.621C1253.26 240.985 1254.04 240.667 1254.96 240.667C1255.84 240.667 1256.58 240.985 1257.19 241.621C1257.82 242.257 1258.14 243.034 1258.14 243.953C1258.14 244.872 1257.82 245.649 1257.19 246.285C1256.58 246.921 1255.84 247.239 1254.96 247.239ZM1257.29 251.956V281H1252.47V251.956H1257.29ZM1277.65 281.477C1274.93 281.477 1272.45 280.859 1270.23 279.622C1268.04 278.385 1266.31 276.636 1265.03 274.375C1263.8 272.078 1263.18 269.428 1263.18 266.425C1263.18 263.457 1263.82 260.842 1265.09 258.581C1266.39 256.284 1268.16 254.535 1270.39 253.334C1272.61 252.097 1275.1 251.479 1277.86 251.479C1280.62 251.479 1283.11 252.097 1285.33 253.334C1287.56 254.535 1289.31 256.267 1290.58 258.528C1291.89 260.789 1292.54 263.422 1292.54 266.425C1292.54 269.428 1291.87 272.078 1290.53 274.375C1289.22 276.636 1287.44 278.385 1285.17 279.622C1282.91 280.859 1280.4 281.477 1277.65 281.477ZM1277.65 277.237C1279.38 277.237 1281.01 276.831 1282.52 276.018C1284.04 275.205 1285.26 273.986 1286.18 272.361C1287.14 270.736 1287.61 268.757 1287.61 266.425C1287.61 264.093 1287.15 262.114 1286.23 260.489C1285.32 258.864 1284.11 257.662 1282.63 256.885C1281.15 256.072 1279.54 255.666 1277.81 255.666C1276.04 255.666 1274.42 256.072 1272.93 256.885C1271.48 257.662 1270.32 258.864 1269.43 260.489C1268.55 262.114 1268.11 264.093 1268.11 266.425C1268.11 268.792 1268.53 270.789 1269.38 272.414C1270.26 274.039 1271.43 275.258 1272.88 276.071C1274.33 276.848 1275.92 277.237 1277.65 277.237ZM1299.89 281.318C1298.97 281.318 1298.19 281 1297.56 280.364C1296.92 279.728 1296.6 278.951 1296.6 278.032C1296.6 277.113 1296.92 276.336 1297.56 275.7C1298.19 275.064 1298.97 274.746 1299.89 274.746C1300.77 274.746 1301.52 275.064 1302.12 275.7C1302.75 276.336 1303.07 277.113 1303.07 278.032C1303.07 278.951 1302.75 279.728 1302.12 280.364C1301.52 281 1300.77 281.318 1299.89 281.318ZM1313.77 257.309C1314.73 255.648 1316.14 254.27 1318.01 253.175C1319.92 252.044 1322.13 251.479 1324.64 251.479C1327.22 251.479 1329.55 252.097 1331.63 253.334C1333.75 254.571 1335.42 256.32 1336.62 258.581C1337.82 260.807 1338.42 263.404 1338.42 266.372C1338.42 269.305 1337.82 271.919 1336.62 274.216C1335.42 276.513 1333.75 278.297 1331.63 279.569C1329.55 280.841 1327.22 281.477 1324.64 281.477C1322.17 281.477 1319.97 280.929 1318.07 279.834C1316.19 278.703 1314.76 277.308 1313.77 275.647V294.78H1308.95V251.956H1313.77V257.309ZM1333.49 266.372C1333.49 264.181 1333.05 262.273 1332.16 260.648C1331.28 259.023 1330.08 257.786 1328.56 256.938C1327.08 256.09 1325.43 255.666 1323.63 255.666C1321.87 255.666 1320.22 256.108 1318.7 256.991C1317.22 257.839 1316.02 259.093 1315.1 260.754C1314.22 262.379 1313.77 264.27 1313.77 266.425C1313.77 268.616 1314.22 270.541 1315.1 272.202C1316.02 273.827 1317.22 275.082 1318.7 275.965C1320.22 276.813 1321.87 277.237 1323.63 277.237C1325.43 277.237 1327.08 276.813 1328.56 275.965C1330.08 275.082 1331.28 273.827 1332.16 272.202C1333.05 270.541 1333.49 268.598 1333.49 266.372ZM1349.06 241.78V281H1344.24V241.78H1349.06Z" fill="var(--color-dark-1)"/>
<rect x="105" y="11" width="6" height="271" fill="var(--color-dark-1)"/>
<rect x="174" y="11" width="12" height="271" fill="var(--color-dark-1)"/>
<rect x="130" y="11" width="6" height="271" fill="var(--color-dark-1)"/>
<rect x="114" y="11" width="12" height="271" fill="var(--color-dark-1)"/>
<rect x="146" y="11" width="6" height="271" fill="var(--color-dark-1)"/>
<rect width="9" height="271" transform="matrix(-1 0 0 1 199 11)" fill="var(--color-dark-1)"/>
<rect y="11" width="7" height="271" fill="var(--color-dark-1)"/>
<rect x="47" y="11" width="9" height="271" fill="var(--color-dark-1)"/>
<rect x="10" y="11" width="3" height="271" fill="var(--color-dark-1)"/>
<rect x="20" y="11" width="3" height="271" fill="var(--color-dark-1)"/>
<rect x="35" y="11" width="8" height="271" fill="var(--color-dark-1)"/>
<rect width="12" height="271" transform="matrix(-1 0 0 1 101 11)" fill="var(--color-dark-1)"/>
<rect width="3" height="271" transform="matrix(-1 0 0 1 73 11)" fill="var(--color-dark-1)"/>
<rect width="3" height="271" transform="matrix(-1 0 0 1 142 11)" fill="var(--color-dark-1)"/>
<rect width="3" height="271" transform="matrix(-1 0 0 1 83 11)" fill="var(--color-dark-1)"/>
<rect width="3" height="271" transform="matrix(-1 0 0 1 161 11)" fill="var(--color-dark-1)"/>
<rect width="3" height="271" transform="matrix(-1 0 0 1 231 11)" fill="var(--color-dark-1)"/>
<rect width="3" height="271" transform="matrix(-1 0 0 1 266 11)" fill="var(--color-dark-1)"/>
<rect width="3" height="271" transform="matrix(-1 0 0 1 275 11)" fill="var(--color-dark-1)"/>
<rect width="3" height="271" transform="matrix(-1 0 0 1 316 11)" fill="var(--color-dark-1)"/>
<rect width="3" height="271" transform="matrix(-1 0 0 1 206 11)" fill="var(--color-dark-1)"/>
<rect width="3" height="271" transform="matrix(-1 0 0 1 212 11)" fill="var(--color-dark-1)"/>
<rect width="6" height="271" transform="matrix(-1 0 0 1 66 11)" fill="var(--color-dark-1)"/>
<rect width="9" height="271" transform="matrix(-1 0 0 1 547 11)" fill="var(--color-dark-1)"/>
<rect width="6" height="271" transform="matrix(-1 0 0 1 500 11)" fill="var(--color-dark-1)"/>
<rect width="11" height="271" transform="matrix(-1 0 0 1 471 11)" fill="var(--color-dark-1)"/>
<rect width="6" height="271" transform="matrix(-1 0 0 1 528 11)" fill="var(--color-dark-1)"/>
<rect width="6" height="271" transform="matrix(-1 0 0 1 563 11)" fill="var(--color-dark-1)"/>
<rect x="320" y="11" width="9" height="271" fill="var(--color-dark-1)"/>
<rect x="332" y="11" width="6" height="271" fill="var(--color-dark-1)"/>
<rect x="363" y="11" width="6" height="271" fill="var(--color-dark-1)"/>
<rect x="402" y="11" width="12" height="271" fill="var(--color-dark-1)"/>
<rect x="347" y="11" width="3" height="271" fill="var(--color-dark-1)"/>
<rect x="373" y="11" width="3" height="271" fill="var(--color-dark-1)"/>
<rect x="383" y="11" width="3" height="271" fill="var(--color-dark-1)"/>
<rect x="392" y="11" width="3" height="271" fill="var(--color-dark-1)"/>
<rect x="418" y="11" width="3" height="271" fill="var(--color-dark-1)"/>
<rect x="446" y="11" width="3" height="271" fill="var(--color-dark-1)"/>
<rect x="478" y="11" width="3" height="271" fill="var(--color-dark-1)"/>
<rect x="487" y="11" width="3" height="271" fill="var(--color-dark-1)"/>
<rect x="513" y="11" width="3" height="271" fill="var(--color-dark-1)"/>
<rect x="551" y="11" width="3" height="271" fill="var(--color-dark-1)"/>
<rect x="453" y="11" width="3" height="271" fill="var(--color-dark-1)"/>
<rect x="216" y="11" width="5" height="271" fill="var(--color-dark-1)"/>
<rect x="243" y="11" width="6" height="271" fill="var(--color-dark-1)"/>
<rect width="11" height="271" transform="matrix(-1 0 0 1 441 11)" fill="var(--color-dark-1)"/>
<rect width="6" height="271" transform="matrix(-1 0 0 1 307 11)" fill="var(--color-dark-1)"/>
<rect width="6" height="271" transform="matrix(-1 0 0 1 284 11)" fill="var(--color-dark-1)"/>
<rect width="6" height="271" transform="matrix(-1 0 0 1 294 11)" fill="var(--color-dark-1)"/>
<path d="M704.55 150.6C704.55 156.7 703.15 162.3 700.35 167.4C697.55 172.4 693.25 176.45 687.45 179.55C681.65 182.65 674.45 184.2 665.85 184.2H649.95V222H624.3V116.7H665.85C674.25 116.7 681.35 118.15 687.15 121.05C692.95 123.95 697.3 127.95 700.2 133.05C703.1 138.15 704.55 144 704.55 150.6ZM663.9 163.8C668.8 163.8 672.45 162.65 674.85 160.35C677.25 158.05 678.45 154.8 678.45 150.6C678.45 146.4 677.25 143.15 674.85 140.85C672.45 138.55 668.8 137.4 663.9 137.4H649.95V163.8H663.9ZM839.704 116.7V222H814.054V158.85L790.504 222H769.804L746.104 158.7V222H720.454V116.7H750.754L780.304 189.6L809.554 116.7H839.704Z" fill="var(--color-dark-1)"/>
<path d="M944.84 112.76C954.36 112.76 962.72 114.6 969.92 118.28C977.2 121.88 982.8 127 986.72 133.64C990.64 140.2 992.6 147.76 992.6 156.32C992.6 163.36 991.36 169.8 988.88 175.64C986.48 181.4 982.88 186 978.08 189.44C973.28 192.88 967.56 194.6 960.92 194.6C956.6 194.6 952.96 193.8 950 192.2C947.12 190.52 945.08 188.16 943.88 185.12C941.8 188.24 939.04 190.64 935.6 192.32C932.24 194 928.44 194.84 924.2 194.84C918.28 194.84 913.64 193.12 910.28 189.68C907 186.24 905.36 181.44 905.36 175.28C905.36 169.52 906.52 164.08 908.84 158.96C911.16 153.84 914.36 149.76 918.44 146.72C922.6 143.6 927.24 142.04 932.36 142.04C935.72 142.04 938.52 142.72 940.76 144.08C943 145.36 944.6 147.16 945.56 149.48L946.76 142.76H965.24L960.32 171.08C960.08 172.28 959.96 173.4 959.96 174.44C959.96 177.72 961.4 179.36 964.28 179.36C967.8 179.36 970.48 177.16 972.32 172.76C974.16 168.36 975.08 163.12 975.08 157.04C975.08 151.2 973.76 146.12 971.12 141.8C968.56 137.48 964.84 134.16 959.96 131.84C955.08 129.52 949.32 128.36 942.68 128.36C933.8 128.36 925.72 130.52 918.44 134.84C911.24 139.08 905.56 144.84 901.4 152.12C897.32 159.4 895.28 167.4 895.28 176.12C895.28 185.48 898 192.84 903.44 198.2C908.88 203.56 916.48 206.24 926.24 206.24C934.32 206.24 941.56 204.84 947.96 202.04L951.8 216.92C943.8 220.44 934.76 222.2 924.68 222.2C915.32 222.2 907.12 220.36 900.08 216.68C893.04 213.08 887.6 207.92 883.76 201.2C879.92 194.48 878 186.68 878 177.8C878 165.4 880.92 154.28 886.76 144.44C892.6 134.52 900.6 126.76 910.76 121.16C920.92 115.56 932.28 112.76 944.84 112.76ZM931.88 178.28C934.6 178.28 937 177.12 939.08 174.8C941.16 172.4 942.2 169.52 942.2 166.16C942.2 163.84 941.6 162 940.4 160.64C939.2 159.2 937.56 158.48 935.48 158.48C932.6 158.48 930.16 159.72 928.16 162.2C926.24 164.6 925.28 167.52 925.28 170.96C925.28 173.2 925.84 175 926.96 176.36C928.16 177.64 929.8 178.28 931.88 178.28Z" fill="var(--color-dark-1)"/>
</g>
<defs>
<clipPath id="clip0_2876_68">
<rect width="1369" height="297" fill="var(--color-light-1)"/>
</clipPath>
 <style>
        :root {
            --color-accent-1: #31ff8b;
            --color-accent-2: #5151f3;
            --color-dark-1: #090c0f;
            --color-dark-2: #121416;
            --color-light-1: #fafaf8;
            --color-light-2: #f0f2f4;
            --color-heading: #101b2b;
            --color-text: #5e6265;
            --color-border: #74787b;
        }
        
        @media (prefers-color-scheme:dark) {
            :root {
            --color-dark-1: #fafaf8;
            --color-dark-2: #f0f2f4;
            --color-light-1: #090c0f;
            --color-light-2: #121416;
            --color-heading: #fff;
            --color-text: #bcbcbc;
            --color-border: #74787b;
            }
          }
          
    </style>
</defs>
</svg>
