<svg xmlns="http://www.w3.org/2000/svg" version="1.1" width="678px" height="139px" style="shape-rendering:geometricPrecision; text-rendering:geometricPrecision; image-rendering:optimizeQuality; fill-rule:evenodd; clip-rule:evenodd" xmlns:xlink="http://www.w3.org/1999/xlink">
<g><path style="opacity:0.92" fill="#ff7f63" d="M 288.5,-0.5 C 312.5,-0.5 336.5,-0.5 360.5,-0.5C 407.163,1.44398 453.83,5.27731 500.5,11C 533.861,15.8726 567.194,20.8726 600.5,26C 617.472,28.7429 634.138,32.7429 650.5,38C 657.211,40.2352 663.544,43.2352 669.5,47C 672.783,49.772 675.45,52.9386 677.5,56.5C 677.5,58.5 677.5,60.5 677.5,62.5C 675.877,66.6448 673.211,70.1448 669.5,73C 660.058,79.0545 650.058,84.0545 639.5,88C 606.622,97.4694 573.622,106.469 540.5,115C 469.632,128.449 398.298,136.282 326.5,138.5C 304.5,138.5 282.5,138.5 260.5,138.5C 191.511,137.041 123.511,127.541 56.5,110C 40.2553,105.809 24.9219,99.4758 10.5,91C 5.80528,87.1584 2.13862,82.6584 -0.5,77.5C -0.5,74.8333 -0.5,72.1667 -0.5,69.5C 2.0772,63.3996 6.0772,58.233 11.5,54C 30.9452,41.3978 51.9452,32.0645 74.5,26C 111.883,15.8805 149.883,9.21381 188.5,6C 221.938,2.99387 255.271,0.827199 288.5,-0.5 Z M 265.5,13.5 C 364.377,13.2957 463.044,17.7957 561.5,27C 580.614,31.2269 598.614,38.2269 615.5,48C 632.701,59.4256 632.701,70.7589 615.5,82C 598.551,92.4278 580.218,99.0945 560.5,102C 488.678,114.124 416.344,120.791 343.5,122C 256.416,124.846 169.749,120.179 83.5,108C 60.7085,104.887 39.0418,98.2204 18.5,88C 7.52206,81.4361 6.02206,73.2695 14,63.5C 24.8316,54.1638 36.9983,46.9971 50.5,42C 73.6719,34.1237 97.3386,28.2903 121.5,24.5C 121.077,27.2431 122.244,28.5765 125,28.5C 171.549,19.4438 218.382,14.4438 265.5,13.5 Z M 599.5,32.5 C 618.33,34.9576 636.664,39.4576 654.5,46C 661.212,48.2579 666.712,52.0913 671,57.5C 671.667,59.1667 671.667,60.8333 671,62.5C 663.777,69.8682 655.277,75.3682 645.5,79C 636.678,82.6631 627.678,85.8297 618.5,88.5C 617.304,88.1543 617.304,87.6543 618.5,87C 638.095,74.1042 639.095,60.1042 621.5,45C 614.267,40.553 606.933,36.3863 599.5,32.5 Z M 141.5,122.5 C 142.622,121.844 143.955,121.511 145.5,121.5C 221.037,128.402 296.704,130.236 372.5,127C 398.857,125.702 425.19,124.369 451.5,123C 348.125,135.78 244.792,135.613 141.5,122.5 Z"/></g>
</svg>
